<svg version="1.2" baseProfile="tiny-ps" xmlns="http://www.w3.org/2000/svg" viewBox="0 0 200 124" width="200" height="124">
	<title>43658-ai</title>
	<defs>
		<linearGradient id="grd1" gradientUnits="userSpaceOnUse"  x1="143.262" y1="22.84" x2="134.398" y2="14.211">
			<stop offset="0" stop-color="#636363"  />
			<stop offset="1" stop-color="#ffffff"  />
		</linearGradient>
		<linearGradient id="grd2" gradientUnits="userSpaceOnUse"  x1="7.573" y1="79.495" x2="39.195" y2="67.657">
			<stop offset="0" stop-color="#ffffff"  />
			<stop offset="1" stop-color="#636363"  />
		</linearGradient>
		<linearGradient id="grd3" gradientUnits="userSpaceOnUse"  x1="143.237" y1="22.865" x2="134.354" y2="14.218">
			<stop offset="0" stop-color="#636363"  />
			<stop offset="1" stop-color="#ffffff"  />
		</linearGradient>
		<linearGradient id="grd4" gradientUnits="userSpaceOnUse"  x1="127.384" y1="8.248" x2="184.019" y2="7.402">
			<stop offset="0" stop-color="#ceced4"  />
			<stop offset="0.821" stop-color="#ffffff"  />
		</linearGradient>
		<linearGradient id="grd5" gradientUnits="userSpaceOnUse"  x1="109.496" y1="52.28" x2="142.079" y2="62.283">
			<stop offset="0" stop-color="#a0a0a3"  />
			<stop offset="0.497" stop-color="#dfdfdf"  />
			<stop offset="1" stop-color="#ffffff"  />
		</linearGradient>
		<linearGradient id="grd6" gradientUnits="userSpaceOnUse"  x1="144.226" y1="51.552" x2="155.652" y2="55.06">
			<stop offset="0" stop-color="#a0a0a3"  />
			<stop offset="0.497" stop-color="#dfdfdf"  />
			<stop offset="1" stop-color="#ffffff"  />
		</linearGradient>
		<linearGradient id="grd7" gradientUnits="userSpaceOnUse"  x1="95.697" y1="75.137" x2="109.731" y2="79.445">
			<stop offset="0" stop-color="#a0a0a3"  />
			<stop offset="0.497" stop-color="#dfdfdf"  />
			<stop offset="1" stop-color="#ffffff"  />
		</linearGradient>
		<linearGradient id="grd8" gradientUnits="userSpaceOnUse"  x1="136.996" y1="54.514" x2="149.477" y2="58.345">
			<stop offset="0" stop-color="#a0a0a3"  />
			<stop offset="0.497" stop-color="#dfdfdf"  />
			<stop offset="1" stop-color="#ffffff"  />
		</linearGradient>
		<linearGradient id="grd9" gradientUnits="userSpaceOnUse"  x1="59.264" y1="81.326" x2="76.105" y2="86.496">
			<stop offset="0" stop-color="#a0a0a3"  />
			<stop offset="0.497" stop-color="#dfdfdf"  />
			<stop offset="1" stop-color="#ffffff"  />
		</linearGradient>
		<linearGradient id="grd10" gradientUnits="userSpaceOnUse"  x1="87.1" y1="79.853" x2="100.957" y2="84.107">
			<stop offset="0" stop-color="#a0a0a3"  />
			<stop offset="0.497" stop-color="#dfdfdf"  />
			<stop offset="1" stop-color="#ffffff"  />
		</linearGradient>
		<linearGradient id="grd11" gradientUnits="userSpaceOnUse"  x1="78.784" y1="84.372" x2="92.523" y2="88.59">
			<stop offset="0" stop-color="#a0a0a3"  />
			<stop offset="0.497" stop-color="#dfdfdf"  />
			<stop offset="1" stop-color="#ffffff"  />
		</linearGradient>
		<linearGradient id="grd12" gradientUnits="userSpaceOnUse"  x1="69.133" y1="88.265" x2="84.351" y2="92.937">
			<stop offset="0" stop-color="#a0a0a3"  />
			<stop offset="0.497" stop-color="#dfdfdf"  />
			<stop offset="1" stop-color="#ffffff"  />
		</linearGradient>
		<linearGradient id="grd13" gradientUnits="userSpaceOnUse"  x1="105.71" y1="46.582" x2="115.899" y2="49.71">
			<stop offset="0" stop-color="#a0a0a3"  />
			<stop offset="0.497" stop-color="#dfdfdf"  />
			<stop offset="1" stop-color="#ffffff"  />
		</linearGradient>
		<linearGradient id="grd14" gradientUnits="userSpaceOnUse"  x1="98.023" y1="49.904" x2="108.691" y2="53.179">
			<stop offset="0" stop-color="#a0a0a3"  />
			<stop offset="0.497" stop-color="#dfdfdf"  />
			<stop offset="1" stop-color="#ffffff"  />
		</linearGradient>
		<linearGradient id="grd15" gradientUnits="userSpaceOnUse"  x1="90.029" y1="53.449" x2="100.933" y2="56.796">
			<stop offset="0" stop-color="#a0a0a3"  />
			<stop offset="0.497" stop-color="#dfdfdf"  />
			<stop offset="1" stop-color="#ffffff"  />
		</linearGradient>
		<linearGradient id="grd16" gradientUnits="userSpaceOnUse"  x1="120.471" y1="39.933" x2="130.402" y2="42.982">
			<stop offset="0" stop-color="#a0a0a3"  />
			<stop offset="0.497" stop-color="#dfdfdf"  />
			<stop offset="1" stop-color="#ffffff"  />
		</linearGradient>
		<linearGradient id="grd17" gradientUnits="userSpaceOnUse"  x1="113" y1="43.063" x2="123.411" y2="46.259">
			<stop offset="0" stop-color="#a0a0a3"  />
			<stop offset="0.497" stop-color="#dfdfdf"  />
			<stop offset="1" stop-color="#ffffff"  />
		</linearGradient>
		<linearGradient id="grd18" gradientUnits="userSpaceOnUse"  x1="155.65" y1="43.754" x2="168.699" y2="47.76">
			<stop offset="0" stop-color="#a0a0a3"  />
			<stop offset="0.497" stop-color="#dfdfdf"  />
			<stop offset="1" stop-color="#ffffff"  />
		</linearGradient>
		<linearGradient id="grd19" gradientUnits="userSpaceOnUse"  x1="129.698" y1="42.297" x2="140.756" y2="45.692">
			<stop offset="0" stop-color="#a0a0a3"  />
			<stop offset="0.497" stop-color="#dfdfdf"  />
			<stop offset="1" stop-color="#ffffff"  />
		</linearGradient>
		<linearGradient id="grd20" gradientUnits="userSpaceOnUse"  x1="80.487" y1="44.269" x2="90.321" y2="47.289">
			<stop offset="0" stop-color="#a0a0a3"  />
			<stop offset="0.497" stop-color="#dfdfdf"  />
			<stop offset="1" stop-color="#ffffff"  />
		</linearGradient>
		<linearGradient id="grd21" gradientUnits="userSpaceOnUse"  x1="105.265" y1="33.942" x2="114.403" y2="36.747">
			<stop offset="0" stop-color="#a0a0a3"  />
			<stop offset="0.497" stop-color="#dfdfdf"  />
			<stop offset="1" stop-color="#ffffff"  />
		</linearGradient>
		<linearGradient id="grd22" gradientUnits="userSpaceOnUse"  x1="120.347" y1="27.929" x2="128.693" y2="30.491">
			<stop offset="0" stop-color="#a0a0a3"  />
			<stop offset="0.497" stop-color="#dfdfdf"  />
			<stop offset="1" stop-color="#ffffff"  />
		</linearGradient>
		<linearGradient id="grd23" gradientUnits="userSpaceOnUse"  x1="113.3" y1="31.21" x2="121.383" y2="33.691">
			<stop offset="0" stop-color="#a0a0a3"  />
			<stop offset="0.497" stop-color="#dfdfdf"  />
			<stop offset="1" stop-color="#ffffff"  />
		</linearGradient>
		<linearGradient id="grd24" gradientUnits="userSpaceOnUse"  x1="97.357" y1="37.673" x2="106.132" y2="40.367">
			<stop offset="0" stop-color="#a0a0a3"  />
			<stop offset="0.497" stop-color="#dfdfdf"  />
			<stop offset="1" stop-color="#ffffff"  />
		</linearGradient>
		<linearGradient id="grd25" gradientUnits="userSpaceOnUse"  x1="89.395" y1="41.054" x2="98.311" y2="43.791">
			<stop offset="0" stop-color="#a0a0a3"  />
			<stop offset="0.497" stop-color="#dfdfdf"  />
			<stop offset="1" stop-color="#ffffff"  />
		</linearGradient>
		<linearGradient id="grd26" gradientUnits="userSpaceOnUse"  x1="143.655" y1="38.45" x2="160.575" y2="43.645">
			<stop offset="0" stop-color="#a0a0a3"  />
			<stop offset="0.497" stop-color="#dfdfdf"  />
			<stop offset="1" stop-color="#ffffff"  />
		</linearGradient>
		<linearGradient id="grd27" gradientUnits="userSpaceOnUse"  x1="49.518" y1="74.036" x2="69.892" y2="80.291">
			<stop offset="0" stop-color="#a0a0a3"  />
			<stop offset="0.497" stop-color="#dfdfdf"  />
			<stop offset="1" stop-color="#ffffff"  />
		</linearGradient>
		<linearGradient id="grd28" gradientUnits="userSpaceOnUse"  x1="122.826" y1="29.349" x2="136.411" y2="33.52">
			<stop offset="0" stop-color="#a0a0a3"  />
			<stop offset="0.497" stop-color="#dfdfdf"  />
			<stop offset="1" stop-color="#ffffff"  />
		</linearGradient>
		<linearGradient id="grd29" gradientUnits="userSpaceOnUse"  x1="134.229" y1="33.709" x2="152.414" y2="39.291">
			<stop offset="0" stop-color="#a0a0a3"  />
			<stop offset="0.497" stop-color="#dfdfdf"  />
			<stop offset="1" stop-color="#ffffff"  />
		</linearGradient>
		<linearGradient id="grd30" gradientUnits="userSpaceOnUse"  x1="33.505" y1="64.184" x2="44.208" y2="67.47">
			<stop offset="0" stop-color="#a0a0a3"  />
			<stop offset="0.497" stop-color="#dfdfdf"  />
			<stop offset="1" stop-color="#ffffff"  />
		</linearGradient>
		<linearGradient id="grd31" gradientUnits="userSpaceOnUse"  x1="28.841" y1="72.158" x2="42.171" y2="76.25">
			<stop offset="0" stop-color="#a0a0a3"  />
			<stop offset="0.497" stop-color="#dfdfdf"  />
			<stop offset="1" stop-color="#ffffff"  />
		</linearGradient>
		<linearGradient id="grd32" gradientUnits="userSpaceOnUse"  x1="43.622" y1="59.992" x2="54.009" y2="63.181">
			<stop offset="0" stop-color="#a0a0a3"  />
			<stop offset="0.497" stop-color="#dfdfdf"  />
			<stop offset="1" stop-color="#ffffff"  />
		</linearGradient>
		<linearGradient id="grd33" gradientUnits="userSpaceOnUse"  x1="81.731" y1="57.129" x2="92.947" y2="60.573">
			<stop offset="0" stop-color="#a0a0a3"  />
			<stop offset="0.497" stop-color="#dfdfdf"  />
			<stop offset="1" stop-color="#ffffff"  />
		</linearGradient>
		<linearGradient id="grd34" gradientUnits="userSpaceOnUse"  x1="39.729" y1="71.694" x2="57.6" y2="77.181">
			<stop offset="0" stop-color="#a0a0a3"  />
			<stop offset="0.497" stop-color="#dfdfdf"  />
			<stop offset="1" stop-color="#ffffff"  />
		</linearGradient>
		<linearGradient id="grd35" gradientUnits="userSpaceOnUse"  x1="71.71" y1="48.363" x2="81.205" y2="51.278">
			<stop offset="0" stop-color="#a0a0a3"  />
			<stop offset="0.497" stop-color="#dfdfdf"  />
			<stop offset="1" stop-color="#ffffff"  />
		</linearGradient>
		<linearGradient id="grd36" gradientUnits="userSpaceOnUse"  x1="53.35" y1="55.961" x2="63.435" y2="59.057">
			<stop offset="0" stop-color="#a0a0a3"  />
			<stop offset="0.497" stop-color="#dfdfdf"  />
			<stop offset="1" stop-color="#ffffff"  />
		</linearGradient>
		<linearGradient id="grd37" gradientUnits="userSpaceOnUse"  x1="62.708" y1="52.077" x2="72.507" y2="55.086">
			<stop offset="0" stop-color="#a0a0a3"  />
			<stop offset="0.497" stop-color="#dfdfdf"  />
			<stop offset="1" stop-color="#ffffff"  />
		</linearGradient>
		<linearGradient id="grd38" gradientUnits="userSpaceOnUse"  x1="21.84" y1="68.196" x2="34.119" y2="71.966">
			<stop offset="0" stop-color="#a0a0a3"  />
			<stop offset="0.497" stop-color="#dfdfdf"  />
			<stop offset="1" stop-color="#ffffff"  />
		</linearGradient>
		<linearGradient id="grd39" gradientUnits="userSpaceOnUse"  x1="71.919" y1="78.045" x2="84.972" y2="82.053">
			<stop offset="0" stop-color="#a0a0a3"  />
			<stop offset="0.497" stop-color="#dfdfdf"  />
			<stop offset="1" stop-color="#ffffff"  />
		</linearGradient>
		<linearGradient id="grd40" gradientUnits="userSpaceOnUse"  x1="65.838" y1="71.915" x2="78.868" y2="75.915">
			<stop offset="0" stop-color="#a0a0a3"  />
			<stop offset="0.497" stop-color="#dfdfdf"  />
			<stop offset="1" stop-color="#ffffff"  />
		</linearGradient>
		<linearGradient id="grd41" gradientUnits="userSpaceOnUse"  x1="54.845" y1="69.032" x2="66.985" y2="72.759">
			<stop offset="0" stop-color="#a0a0a3"  />
			<stop offset="0.497" stop-color="#dfdfdf"  />
			<stop offset="1" stop-color="#ffffff"  />
		</linearGradient>
		<linearGradient id="grd42" gradientUnits="userSpaceOnUse"  x1="80.85" y1="73.724" x2="93.636" y2="77.649">
			<stop offset="0" stop-color="#a0a0a3"  />
			<stop offset="0.497" stop-color="#dfdfdf"  />
			<stop offset="1" stop-color="#ffffff"  />
		</linearGradient>
		<linearGradient id="grd43" gradientUnits="userSpaceOnUse"  x1="39.118" y1="67.868" x2="51.915" y2="71.796">
			<stop offset="0" stop-color="#a0a0a3"  />
			<stop offset="0.497" stop-color="#dfdfdf"  />
			<stop offset="1" stop-color="#ffffff"  />
		</linearGradient>
		<linearGradient id="grd44" gradientUnits="userSpaceOnUse"  x1="58.213" y1="59.758" x2="70.335" y2="63.48">
			<stop offset="0" stop-color="#a0a0a3"  />
			<stop offset="0.497" stop-color="#dfdfdf"  />
			<stop offset="1" stop-color="#ffffff"  />
		</linearGradient>
		<linearGradient id="grd45" gradientUnits="userSpaceOnUse"  x1="48.853" y1="63.755" x2="61.303" y2="67.578">
			<stop offset="0" stop-color="#a0a0a3"  />
			<stop offset="0.497" stop-color="#dfdfdf"  />
			<stop offset="1" stop-color="#ffffff"  />
		</linearGradient>
		<linearGradient id="grd46" gradientUnits="userSpaceOnUse"  x1="89.507" y1="69.589" x2="101.971" y2="73.415">
			<stop offset="0" stop-color="#a0a0a3"  />
			<stop offset="0.497" stop-color="#dfdfdf"  />
			<stop offset="1" stop-color="#ffffff"  />
		</linearGradient>
		<linearGradient id="grd47" gradientUnits="userSpaceOnUse"  x1="128.312" y1="51.023" x2="139.363" y2="54.416">
			<stop offset="0" stop-color="#a0a0a3"  />
			<stop offset="0.497" stop-color="#dfdfdf"  />
			<stop offset="1" stop-color="#ffffff"  />
		</linearGradient>
		<linearGradient id="grd48" gradientUnits="userSpaceOnUse"  x1="135.286" y1="47.669" x2="146.102" y2="50.99">
			<stop offset="0" stop-color="#a0a0a3"  />
			<stop offset="0.497" stop-color="#dfdfdf"  />
			<stop offset="1" stop-color="#ffffff"  />
		</linearGradient>
		<linearGradient id="grd49" gradientUnits="userSpaceOnUse"  x1="67.229" y1="55.906" x2="79.038" y2="59.531">
			<stop offset="0" stop-color="#a0a0a3"  />
			<stop offset="0.497" stop-color="#dfdfdf"  />
			<stop offset="1" stop-color="#ffffff"  />
		</linearGradient>
		<linearGradient id="grd50" gradientUnits="userSpaceOnUse"  x1="97.839" y1="65.631" x2="109.962" y2="69.353">
			<stop offset="0" stop-color="#a0a0a3"  />
			<stop offset="0.497" stop-color="#dfdfdf"  />
			<stop offset="1" stop-color="#ffffff"  />
		</linearGradient>
		<linearGradient id="grd51" gradientUnits="userSpaceOnUse"  x1="105.843" y1="61.78" x2="117.704" y2="65.421">
			<stop offset="0" stop-color="#a0a0a3"  />
			<stop offset="0.497" stop-color="#dfdfdf"  />
			<stop offset="1" stop-color="#ffffff"  />
		</linearGradient>
		<linearGradient id="grd52" gradientUnits="userSpaceOnUse"  x1="113.525" y1="58.254" x2="124.885" y2="61.742">
			<stop offset="0" stop-color="#a0a0a3"  />
			<stop offset="0.497" stop-color="#dfdfdf"  />
			<stop offset="1" stop-color="#ffffff"  />
		</linearGradient>
		<linearGradient id="grd53" gradientUnits="userSpaceOnUse"  x1="120.845" y1="54.373" x2="132.397" y2="57.92">
			<stop offset="0" stop-color="#a0a0a3"  />
			<stop offset="0.497" stop-color="#dfdfdf"  />
			<stop offset="1" stop-color="#ffffff"  />
		</linearGradient>
		<linearGradient id="grd54" gradientUnits="userSpaceOnUse"  x1="73.099" y1="60.931" x2="84.607" y2="64.464">
			<stop offset="0" stop-color="#a0a0a3"  />
			<stop offset="0.497" stop-color="#dfdfdf"  />
			<stop offset="1" stop-color="#ffffff"  />
		</linearGradient>
		<linearGradient id="grd55" gradientUnits="userSpaceOnUse"  x1="99.981" y1="56.2" x2="111.804" y2="59.829">
			<stop offset="0" stop-color="#a0a0a3"  />
			<stop offset="0.497" stop-color="#dfdfdf"  />
			<stop offset="1" stop-color="#ffffff"  />
		</linearGradient>
		<linearGradient id="grd56" gradientUnits="userSpaceOnUse"  x1="107.727" y1="52.818" x2="119.048" y2="56.293">
			<stop offset="0" stop-color="#a0a0a3"  />
			<stop offset="0.497" stop-color="#dfdfdf"  />
			<stop offset="1" stop-color="#ffffff"  />
		</linearGradient>
		<linearGradient id="grd57" gradientUnits="userSpaceOnUse"  x1="122.606" y1="45.792" x2="133.623" y2="49.175">
			<stop offset="0" stop-color="#a0a0a3"  />
			<stop offset="0.497" stop-color="#dfdfdf"  />
			<stop offset="1" stop-color="#ffffff"  />
		</linearGradient>
		<linearGradient id="grd58" gradientUnits="userSpaceOnUse"  x1="91.924" y1="59.928" x2="104.009" y2="63.638">
			<stop offset="0" stop-color="#a0a0a3"  />
			<stop offset="0.497" stop-color="#dfdfdf"  />
			<stop offset="1" stop-color="#ffffff"  />
		</linearGradient>
		<linearGradient id="grd59" gradientUnits="userSpaceOnUse"  x1="115.091" y1="49.063" x2="126.6" y2="52.596">
			<stop offset="0" stop-color="#a0a0a3"  />
			<stop offset="0.497" stop-color="#dfdfdf"  />
			<stop offset="1" stop-color="#ffffff"  />
		</linearGradient>
		<linearGradient id="grd60" gradientUnits="userSpaceOnUse"  x1="83.539" y1="63.699" x2="95.963" y2="67.513">
			<stop offset="0" stop-color="#a0a0a3"  />
			<stop offset="0.497" stop-color="#dfdfdf"  />
			<stop offset="1" stop-color="#ffffff"  />
		</linearGradient>
		<linearGradient id="grd61" gradientUnits="userSpaceOnUse"  x1="64.155" y1="64.918" x2="75.971" y2="68.545">
			<stop offset="0" stop-color="#a0a0a3"  />
			<stop offset="0.497" stop-color="#dfdfdf"  />
			<stop offset="1" stop-color="#ffffff"  />
		</linearGradient>
		<linearGradient id="grd62" gradientUnits="userSpaceOnUse"  x1="74.831" y1="67.751" x2="87.576" y2="71.664">
			<stop offset="0" stop-color="#a0a0a3"  />
			<stop offset="0.497" stop-color="#dfdfdf"  />
			<stop offset="1" stop-color="#ffffff"  />
		</linearGradient>
		<linearGradient id="grd63" gradientUnits="userSpaceOnUse"  x1="114.94" y1="35.486" x2="125.149" y2="38.62">
			<stop offset="0" stop-color="#a0a0a3"  />
			<stop offset="0.497" stop-color="#dfdfdf"  />
			<stop offset="1" stop-color="#ffffff"  />
		</linearGradient>
		<linearGradient id="grd64" gradientUnits="userSpaceOnUse"  x1="84.247" y1="48.637" x2="95.469" y2="52.082">
			<stop offset="0" stop-color="#a0a0a3"  />
			<stop offset="0.497" stop-color="#dfdfdf"  />
			<stop offset="1" stop-color="#ffffff"  />
		</linearGradient>
		<linearGradient id="grd65" gradientUnits="userSpaceOnUse"  x1="136.884" y1="38.853" x2="147.859" y2="42.223">
			<stop offset="0" stop-color="#a0a0a3"  />
			<stop offset="0.497" stop-color="#dfdfdf"  />
			<stop offset="1" stop-color="#ffffff"  />
		</linearGradient>
		<linearGradient id="grd66" gradientUnits="userSpaceOnUse"  x1="99.875" y1="41.746" x2="110.816" y2="45.105">
			<stop offset="0" stop-color="#a0a0a3"  />
			<stop offset="0.497" stop-color="#dfdfdf"  />
			<stop offset="1" stop-color="#ffffff"  />
		</linearGradient>
		<linearGradient id="grd67" gradientUnits="userSpaceOnUse"  x1="92.259" y1="45.356" x2="102.973" y2="48.646">
			<stop offset="0" stop-color="#a0a0a3"  />
			<stop offset="0.497" stop-color="#dfdfdf"  />
			<stop offset="1" stop-color="#ffffff"  />
		</linearGradient>
		<linearGradient id="grd68" gradientUnits="userSpaceOnUse"  x1="75.908" y1="52.227" x2="87.382" y2="55.75">
			<stop offset="0" stop-color="#a0a0a3"  />
			<stop offset="0.497" stop-color="#dfdfdf"  />
			<stop offset="1" stop-color="#ffffff"  />
		</linearGradient>
		<linearGradient id="grd69" gradientUnits="userSpaceOnUse"  x1="107.669" y1="38.614" x2="118.104" y2="41.818">
			<stop offset="0" stop-color="#a0a0a3"  />
			<stop offset="0.497" stop-color="#dfdfdf"  />
			<stop offset="1" stop-color="#ffffff"  />
		</linearGradient>
		<linearGradient id="grd70" gradientUnits="userSpaceOnUse"  x1="127.447" y1="36.822" x2="137.166" y2="39.805">
			<stop offset="0" stop-color="#a0a0a3"  />
			<stop offset="0.497" stop-color="#dfdfdf"  />
			<stop offset="1" stop-color="#ffffff"  />
		</linearGradient>
	</defs>
	<style>
		tspan { white-space:pre }
		.shp0 { fill: url(#grd1) } 
		.shp1 { mix-blend-mode: multiply;fill: url(#grd2) } 
		.shp2 { fill: url(#grd3) } 
		.shp3 { fill: #a5a6a5 } 
		.shp4 { fill: url(#grd4) } 
		.shp5 { fill: #f6f4f4 } 
		.shp6 { fill: #d1d1d1 } 
		.shp7 { fill: url(#grd5) } 
		.shp8 { fill: url(#grd6) } 
		.shp9 { fill: url(#grd7) } 
		.shp10 { fill: url(#grd8) } 
		.shp11 { fill: url(#grd9) } 
		.shp12 { fill: url(#grd10) } 
		.shp13 { fill: url(#grd11) } 
		.shp14 { fill: url(#grd12) } 
		.shp15 { fill: url(#grd13) } 
		.shp16 { fill: url(#grd14) } 
		.shp17 { fill: url(#grd15) } 
		.shp18 { fill: url(#grd16) } 
		.shp19 { fill: url(#grd17) } 
		.shp20 { fill: url(#grd18) } 
		.shp21 { fill: url(#grd19) } 
		.shp22 { fill: url(#grd20) } 
		.shp23 { fill: url(#grd21) } 
		.shp24 { fill: url(#grd22) } 
		.shp25 { fill: url(#grd23) } 
		.shp26 { fill: url(#grd24) } 
		.shp27 { fill: url(#grd25) } 
		.shp28 { fill: url(#grd26) } 
		.shp29 { fill: url(#grd27) } 
		.shp30 { fill: url(#grd28) } 
		.shp31 { fill: url(#grd29) } 
		.shp32 { fill: url(#grd30) } 
		.shp33 { fill: url(#grd31) } 
		.shp34 { fill: url(#grd32) } 
		.shp35 { fill: url(#grd33) } 
		.shp36 { fill: url(#grd34) } 
		.shp37 { fill: url(#grd35) } 
		.shp38 { fill: url(#grd36) } 
		.shp39 { fill: url(#grd37) } 
		.shp40 { fill: url(#grd38) } 
		.shp41 { fill: url(#grd39) } 
		.shp42 { fill: url(#grd40) } 
		.shp43 { fill: url(#grd41) } 
		.shp44 { fill: url(#grd42) } 
		.shp45 { fill: url(#grd43) } 
		.shp46 { fill: url(#grd44) } 
		.shp47 { fill: url(#grd45) } 
		.shp48 { fill: url(#grd46) } 
		.shp49 { fill: url(#grd47) } 
		.shp50 { fill: url(#grd48) } 
		.shp51 { fill: url(#grd49) } 
		.shp52 { fill: url(#grd50) } 
		.shp53 { fill: url(#grd51) } 
		.shp54 { fill: url(#grd52) } 
		.shp55 { fill: url(#grd53) } 
		.shp56 { fill: url(#grd54) } 
		.shp57 { fill: url(#grd55) } 
		.shp58 { fill: url(#grd56) } 
		.shp59 { fill: url(#grd57) } 
		.shp60 { fill: url(#grd58) } 
		.shp61 { fill: url(#grd59) } 
		.shp62 { fill: url(#grd60) } 
		.shp63 { fill: url(#grd61) } 
		.shp64 { fill: url(#grd62) } 
		.shp65 { fill: url(#grd63) } 
		.shp66 { fill: url(#grd64) } 
		.shp67 { fill: url(#grd65) } 
		.shp68 { fill: url(#grd66) } 
		.shp69 { fill: url(#grd67) } 
		.shp70 { fill: url(#grd68) } 
		.shp71 { fill: url(#grd69) } 
		.shp72 { fill: url(#grd70) } 
		.shp73 { fill: #e6e6e6 } 
	</style>
	<g id="BG">
	</g>
	<g id="Shadow">
		<g id="&lt;Group&gt;">
			<g id="&lt;Group&gt;" style="mix-blend-mode: multiply">
				<path id="&lt;Mesh&gt;" class="shp0" d="M126.73 20.66C131.67 20.4 138.01 20.85 143.14 22.39C142.73 19.69 144.07 19.62 144.78 16.96C139.43 15.91 134.79 13.21 129.79 15.33C128.2 16.76 126.29 19.04 126.73 20.66ZM129.79 15.33C134.79 13.21 139.43 15.91 144.78 16.96C144.99 16.17 150.1 12.45 150.4 11.71C145.26 11.04 142.74 10.12 133.92 13.4C133.05 13.85 130.38 14.8 129.79 15.33ZM143.14 22.39C154.23 25.77 166.08 28.79 177.49 30.61C177.06 27.98 174.84 27.22 173.51 25.57C164.45 22.52 155.19 19 144.78 16.96C144.07 19.62 142.73 19.69 143.14 22.39ZM144.78 16.96C155.19 19 164.45 22.52 173.51 25.57C172.96 24.85 172.38 24.16 171.78 23.49C165.03 20.3 158.28 17.11 151.53 13.91C149.47 12.94 152.94 12.04 150.4 11.71C150.1 12.45 144.99 16.17 144.78 16.96ZM177.49 30.61C180.77 31.18 181.04 32.96 186.53 33.53C186.27 31.93 185.1 30.34 183.05 28.99C180.1 27.79 176.83 26.69 173.51 25.57C174.84 27.22 177.06 27.98 177.49 30.61ZM173.51 25.57C176.83 26.69 180.1 27.79 183.05 28.99C182.47 28.61 181.83 28.24 181.11 27.9C180.91 27.81 180.71 27.72 180.52 27.62C177.6 26.25 174.69 24.87 171.78 23.49C172.38 24.16 172.96 24.85 173.51 25.57Z" />
			</g>
			<path id="&lt;Mesh&gt;" class="shp1" d="M7.57 79.5C10.03 83.24 14.75 84.68 19.4 86.65C21.46 85.06 31.59 79.37 33.39 77.18C28.76 76.5 21.9 75.73 17.27 75.05C15.44 75.77 9.64 78.54 7.57 79.5ZM17.27 75.05C21.9 75.73 28.76 76.5 33.39 77.18C35.97 74.05 36.26 70.96 39.2 67.65C34.6 69.18 30 70.14 25.41 71.67C22.44 73.06 19.89 74.02 17.27 75.05ZM25.41 71.67C30 70.14 34.6 69.18 39.2 67.65C40.79 65.86 38.4 67.16 40 65.93C35.42 68.07 30.89 69.3 26.31 71.43C24.7 72.18 27.02 70.92 25.41 71.67ZM19.4 86.65C35.15 93.29 49.88 99.92 65.63 106.56C67.59 99.9 63.9 101.8 65.63 95.52C49.95 93.22 49.06 79.48 33.39 77.18C31.59 79.37 21.46 85.06 19.4 86.65ZM33.39 77.18C49.06 79.48 49.95 93.22 65.63 95.52C68.11 86.51 79.13 68.15 81.96 58.77C66.42 63.94 54.73 62.48 39.2 67.65C36.26 70.96 35.97 74.05 33.39 77.18ZM39.2 67.65C54.73 62.48 66.42 63.94 81.96 58.77C83.49 53.68 86.13 50.66 87.66 45.48C72.16 52.69 55.5 58.72 40 65.93C38.4 67.16 40.79 65.86 39.2 67.65ZM65.63 106.56C70.47 108.6 78.48 109.4 83.32 111.44C88 109.07 92.68 106.71 97.35 104.35C99.34 96.65 102.59 97.32 104.31 89.69C100.37 91.46 91.88 91.84 84.66 94.74C77.47 95.04 70.53 96.2 65.63 95.52C63.9 101.8 67.59 99.9 65.63 106.56ZM65.63 95.52C70.53 96.2 77.47 95.04 84.66 94.74C91.88 91.84 100.37 91.46 104.31 89.69C106.79 78.75 107.69 59.49 110.51 48.23C100.89 52.77 91.98 55.43 81.96 58.77C79.13 68.15 68.11 86.51 65.63 95.52ZM81.96 58.77C91.98 55.43 100.89 52.77 110.51 48.23C112.04 42.13 119.71 37.2 121.25 31.21C111.73 35.64 97.18 41.04 87.66 45.48C86.13 50.66 83.49 53.68 81.96 58.77ZM97.35 104.35C115.16 95.34 132.97 86.34 150.78 77.34C153.04 74.72 151.17 66.96 153.15 63.89C143.35 68.28 125.87 80.01 104.31 89.69C102.59 97.32 99.34 96.65 97.35 104.35ZM104.31 89.69C125.87 80.01 143.35 68.28 153.15 63.89C156 59.48 166.84 57.71 170.04 53.09C152.65 48.76 131.86 50.68 113.98 46.56C112.81 47.12 111.65 47.69 110.51 48.23C107.69 59.49 106.79 78.75 104.31 89.69ZM110.51 48.23C111.65 47.69 112.81 47.12 113.98 46.56C131.86 50.68 152.65 48.76 170.04 53.09C171.78 50.59 169.35 50.12 171.11 48.09C153.59 41.55 141.45 36.01 124.61 29.6C123.51 30.14 122.39 30.68 121.25 31.21C119.71 37.2 112.04 42.13 110.51 48.23ZM150.78 77.34C157.84 73.76 163.7 71.41 170.76 67.83C173.11 66.65 175.46 65.46 177.8 64.27C170.62 65.86 159.86 60.87 153.15 63.89C151.17 66.96 153.04 74.72 150.78 77.34ZM153.15 63.89C159.86 60.87 170.62 65.86 177.8 64.27C181.17 62.57 184.54 60.87 187.9 59.17C180.53 57.33 177.42 54.93 170.04 53.09C166.84 57.71 156 59.48 153.15 63.89ZM170.04 53.09C177.42 54.93 180.53 57.33 187.9 59.17C189.73 58.24 191.55 57.32 193.38 56.4C185.96 53.63 178.53 50.86 171.11 48.09C169.35 50.12 171.78 50.59 170.04 53.09Z" />
			<g id="&lt;Group&gt;" style="mix-blend-mode: multiply">
				<path id="&lt;Mesh&gt;" class="shp2" d="M132.27 25.52C136.94 27.8 141.41 30.17 146.08 32.44C145.66 31.48 147.18 27.76 146.8 26.74C141.98 24.7 134.41 25.77 129.64 24.17C130.49 24.69 131.39 25.09 132.27 25.52ZM129.64 24.17C134.41 25.77 141.98 24.7 146.8 26.74C145.96 24.51 143.51 24.78 143.14 22.39C138.01 20.85 131.67 20.4 126.73 20.66C127.12 22.11 127.66 22.97 129.64 24.17ZM126.73 20.66C131.67 20.4 138.01 20.85 143.14 22.39C142.73 19.69 144.07 19.62 144.78 16.96C139.43 15.91 134.79 13.21 129.79 15.33C128.2 16.76 126.29 19.04 126.73 20.66ZM129.79 15.33C134.79 13.21 139.43 15.91 144.78 16.96C144.99 16.17 150.1 12.45 150.4 11.71C145.26 11.04 142.74 10.12 133.92 13.4C133.05 13.85 130.38 14.8 129.79 15.33ZM146.08 32.44C150.82 34.75 155.56 37.06 160.3 39.37C164.21 41.27 169.37 42.04 174.11 41.68C175.44 39.6 172.97 37.23 173.32 36.31C164.11 33.23 156.59 31.02 146.8 26.74C147.18 27.76 145.66 31.48 146.08 32.44ZM146.8 26.74C156.59 31.02 164.11 33.23 173.32 36.31C174.09 34.3 177.87 32.95 177.49 30.61C166.08 28.79 154.23 25.77 143.14 22.39C143.51 24.78 145.96 24.51 146.8 26.74ZM143.14 22.39C154.23 25.77 166.08 28.79 177.49 30.61C177.06 27.98 174.84 27.22 173.51 25.57C164.45 22.52 155.19 19 144.78 16.96C144.07 19.62 142.73 19.69 143.14 22.39ZM144.78 16.96C155.19 19 164.45 22.52 173.51 25.57C172.96 24.85 172.38 24.16 171.78 23.49C165.03 20.3 158.28 17.11 151.53 13.91C149.47 12.94 152.94 12.04 150.4 11.71C150.1 12.45 144.99 16.17 144.78 16.96ZM174.11 41.68C177.32 41.43 180.52 40.56 182.82 39.27C183.71 38.77 184.44 38.22 185.02 37.64C178.64 36.93 176.38 37.32 173.32 36.31C172.97 37.23 175.44 39.6 174.11 41.68ZM173.32 36.31C176.38 37.32 178.64 36.93 185.02 37.64C186.26 36.37 186.75 34.95 186.53 33.53C181.04 32.96 180.77 31.18 177.49 30.61C177.87 32.95 174.09 34.3 173.32 36.31ZM177.49 30.61C180.77 31.18 181.04 32.96 186.53 33.53C186.27 31.93 185.1 30.34 183.05 28.99C180.1 27.79 176.83 26.69 173.51 25.57C174.84 27.22 177.06 27.98 177.49 30.61ZM173.51 25.57C176.83 26.69 180.1 27.79 183.05 28.99C182.47 28.61 181.83 28.24 181.11 27.9C180.91 27.81 180.71 27.72 180.52 27.62C177.6 26.25 174.69 24.87 171.78 23.49C172.38 24.16 172.96 24.85 173.51 25.57Z" />
			</g>
		</g>
	</g>
	<g id="Object">
		<g id="&lt;Group&gt;">
			<g id="&lt;Group&gt;">
				<path id="&lt;Path&gt;" class="shp3" d="M128.19 18.7C125.4 16.14 127.54 13.5 134.63 10.79C146 6.44 162.41 7.08 177.57 18.73C187.67 26.49 187.76 32.01 177.82 35.28C174.39 36.41 173 37.69 168.14 35.64C164.15 33.96 160.2 32.05 156.25 30.31C150.72 27.89 145.02 25.95 139.38 23.81C136.85 22.85 134.31 21.89 131.84 20.79C130.9 20.38 128.68 19.74 128.19 18.7Z" />
				<path id="&lt;Path&gt;" class="shp4" d="M177.85 35.37C181.02 34.13 184.36 31.8 184.37 28.29C184.38 24.26 180.45 20.94 177.57 18.73C162.41 7.08 146 6.45 134.63 10.79C128.27 13.22 127.22 15.58 127.4 17.08C127.64 18.79 134.26 20.05 135.6 20.47C146.47 23.95 158.57 27.97 167.94 34.62C170.13 36.18 172.9 36.75 175.52 36.11C176.24 35.93 177.04 35.69 177.85 35.37Z" />
			</g>
			<g id="&lt;Group&gt;">
				<path id="&lt;Path&gt;" class="shp5" d="M17.69 73.16L122.72 29.6C123.64 29.21 125.03 29.3 126.25 29.83L168.69 47.67C170.61 48.51 173.01 49.59 172.45 52.8C172.34 53.46 171.89 54.02 171.31 54.33L78.01 102.64C75.91 103.97 73.74 103.35 72.26 102.73L19.85 81.1C18.72 80.65 17.3 80.01 16.71 79.26C15.08 77.18 15.88 73.93 17.69 73.16Z" />
				<path id="&lt;Path&gt;" class="shp6" d="M17.69 73.16L122.2 28.43C123.12 28.03 124.5 28.13 125.72 28.66L170.27 48.42C171.53 48.97 172.09 49.88 172.13 50.82C172.18 51.78 171.6 52.67 170.74 53.12L77.12 101.53C75.98 102.15 74.25 102.16 72.77 101.54L18.5 77.56C15.83 76.45 15.41 74.13 17.69 73.16Z" />
				<g id="&lt;Group&gt;">
					<g id="&lt;Group&gt;">
						<g id="&lt;Group&gt;">
							<path id="&lt;Path&gt;" class="shp7" d="M140.64 62.94L135.22 60.67C134.43 60.34 133.35 60.32 132.76 60.62L103.53 75.68C102.99 75.96 102.93 76.37 102.94 76.6C102.95 76.86 103.09 77.35 103.88 77.67L109.74 80.1C110.08 80.24 110.47 80.33 110.86 80.36C111.45 80.4 112.04 80.31 112.43 80.1L141.06 64.8C141.53 64.55 141.57 64.17 141.56 63.97C141.54 63.67 141.36 63.24 140.64 62.94Z" />
							<path id="&lt;Path&gt;" class="shp8" d="M154.23 55.73L149 53.53C148.24 53.21 147.21 53.18 146.65 53.46L143.56 55.06C143.11 55.29 143.06 55.66 143.08 55.86C143.1 56.16 143.27 56.57 143.98 56.87L149.28 59.1C149.6 59.23 149.96 59.31 150.31 59.34C150.82 59.39 151.32 59.32 151.65 59.15L154.68 57.53C155.13 57.28 155.15 56.89 155.14 56.73C155.12 56.44 154.94 56.03 154.23 55.73Z" />
							<path id="&lt;Path&gt;" class="shp9" d="M108.24 80.13L102.36 77.69C101.51 77.34 100.31 77.34 99.62 77.69L94.7 80.23C94.14 80.52 94.07 80.94 94.08 81.17C94.09 81.44 94.23 81.93 95.03 82.26L101.02 84.74C101.36 84.88 101.76 84.97 102.16 84.99C102.76 85.04 103.37 84.95 103.79 84.72L108.61 82.14C109.14 81.86 109.2 81.44 109.19 81.21C109.18 80.95 109.04 80.46 108.24 80.13Z" />
							<path id="&lt;Path&gt;" class="shp10" d="M148.05 59.01L142.78 56.79C142 56.47 140.95 56.44 140.38 56.73L136.11 58.9C135.64 59.14 135.59 59.52 135.6 59.73C135.62 60.02 135.79 60.44 136.51 60.75L141.92 63.01C142.24 63.14 142.6 63.23 142.96 63.26C143.49 63.3 144 63.23 144.34 63.05L148.49 60.84C148.94 60.6 148.98 60.22 148.96 60.02C148.94 59.73 148.76 59.31 148.05 59.01Z" />
							<path id="&lt;Path&gt;" class="shp11" d="M75.56 88.26C75.56 87.99 75.42 87.48 74.61 87.14L69.72 85.05L69.72 85.05C68.82 84.66 67.52 84.66 66.76 85.04L57.47 89.63C56.83 89.95 56.74 90.41 56.75 90.66C56.75 90.94 56.88 91.45 57.71 91.79L62.85 93.9C63.22 94.05 63.64 94.14 64.07 94.16C64.74 94.21 65.42 94.1 65.89 93.86L74.89 89.26C75.49 88.95 75.57 88.5 75.56 88.26Z" />
							<path id="&lt;Path&gt;" class="shp12" d="M99.46 84.8L93.45 82.31C92.58 81.95 91.34 81.95 90.63 82.32L86.21 84.6C85.63 84.9 85.56 85.34 85.57 85.57C85.58 85.84 85.71 86.34 86.52 86.67L92.63 89.19C92.98 89.34 93.38 89.42 93.79 89.45C94.41 89.49 95.04 89.4 95.47 89.17L99.81 86.85C100.36 86.55 100.42 86.12 100.41 85.89C100.4 85.63 100.26 85.13 99.46 84.8Z" />
							<path id="&lt;Path&gt;" class="shp13" d="M91.01 89.28L84.88 86.75C83.99 86.38 82.73 86.39 81.99 86.77L77.99 88.83C77.39 89.14 77.31 89.59 77.32 89.83C77.33 90.1 77.46 90.61 78.28 90.95L84.51 93.51C84.86 93.65 85.27 93.74 85.68 93.77C86.33 93.81 86.97 93.71 87.42 93.47L91.34 91.37C91.92 91.07 91.99 90.63 91.97 90.39C91.96 90.12 91.82 89.61 91.01 89.28Z" />
							<path id="&lt;Path&gt;" class="shp14" d="M82.83 93.62L76.58 91.05C75.68 90.68 74.38 90.69 73.62 91.08L68.02 93.97C67.4 94.29 67.32 94.75 67.32 95C67.33 95.27 67.47 95.79 68.29 96.13L74.66 98.74C75.02 98.89 75.44 98.97 75.86 99C76.52 99.04 77.2 98.93 77.66 98.68L83.14 95.76C83.73 95.44 83.81 94.99 83.8 94.75C83.79 94.47 83.65 93.96 82.83 93.62Z" />
							<path id="&lt;Path&gt;" class="shp15" d="M111.08 48.79C110.74 48.64 110.56 48.56 110.18 48.52C110.17 48.52 110.17 48.52 110.16 48.52C109.7 48.48 109.36 48.48 108.76 48.75L105.03 50.47C104.52 50.7 104.45 51.09 104.46 51.3C104.47 51.6 104.64 52.02 105.36 52.32L108.45 53.62C109.02 53.85 109.51 53.97 109.71 54.01L109.75 54.01C109.79 54.04 109.86 54.05 109.96 54.06C110.26 54.08 110.78 54.03 111.23 53.82L114.89 52.09C115.39 51.85 115.45 51.47 115.44 51.26C115.43 50.97 115.26 50.55 114.54 50.25L111.52 48.98C111.34 48.91 111.2 48.84 111.08 48.79Z" />
							<path id="&lt;Path&gt;" class="shp16" d="M101.38 52.15L97.28 54.03C96.74 54.28 96.68 54.67 96.68 54.89C96.69 55.19 96.86 55.62 97.59 55.92L100.98 57.34C101.43 57.52 101.92 57.65 102.35 57.68L102.35 57.68L102.35 57.68C102.62 57.71 103.16 57.63 103.62 57.42L107.66 55.5C108.18 55.26 108.24 54.87 108.23 54.66C108.22 54.36 108.05 53.94 107.33 53.63L103.95 52.22C103.15 51.89 102.02 51.85 101.38 52.15Z" />
							<path id="&lt;Path&gt;" class="shp17" d="M94.85 55.49L94.85 55.49C94.55 55.43 93.92 55.58 93.5 55.77L89.28 57.71C88.73 57.96 88.65 58.37 88.66 58.59C88.67 58.89 88.84 59.32 89.57 59.63L93.07 61.09C93.41 61.23 93.81 61.31 94.2 61.35C94.77 61.39 95.34 61.33 95.74 61.14L99.89 59.18C100.42 58.93 100.49 58.53 100.48 58.31C100.47 58.01 100.3 57.58 99.57 57.28L96.24 55.89C95.6 55.62 95.06 55.53 94.85 55.49Z" />
							<path id="&lt;Path&gt;" class="shp18" d="M123.47 41.99L119.78 43.69C119.3 43.91 119.24 44.28 119.25 44.48C119.26 44.77 119.43 45.18 120.14 45.48L123.38 46.85C123.71 46.98 124.08 47.07 124.45 47.1C124.96 47.15 125.47 47.09 125.81 46.93L129.44 45.21C129.91 44.99 129.97 44.62 129.95 44.43C129.94 44.14 129.77 43.73 129.07 43.43L125.87 42.09C125.1 41.77 124.05 41.72 123.47 41.99Z" />
							<path id="&lt;Path&gt;" class="shp19" d="M112.59 48.98L115.89 50.36C116.34 50.55 116.74 50.62 117 50.64C117.13 50.65 117.22 50.65 117.27 50.65L117.27 50.65C117.5 50.66 117.94 50.65 118.38 50.44L122.44 48.52C122.93 48.29 122.98 47.92 122.97 47.72C122.95 47.42 122.79 47.01 122.08 46.72L119.18 45.5C118.46 45.19 118.18 45.11 117.88 45.04C117.41 44.94 116.92 45 116.43 45.23L112.25 47.15C111.74 47.38 111.68 47.76 111.69 47.97C111.71 48.26 111.87 48.68 112.59 48.98Z" />
							<path id="&lt;Path&gt;" class="shp20" d="M168.34 48.93C168.35 48.85 168.34 48.77 168.32 48.69C168.28 48.56 168.19 48.45 168.09 48.37C167.67 47.99 167.21 47.85 166.72 47.64C165.96 47.32 164.95 47.28 164.42 47.56L161.91 48.88C161.58 49.05 161.58 49.38 161.59 49.48C161.43 49.48 161.27 49.48 161.13 49.49C161.08 49.21 160.89 48.84 160.24 48.56L158.6 47.87C158.18 47.69 157.65 47.68 157.34 47.84L154.41 49.35C153.96 49.58 153.92 49.95 153.93 50.15C153.96 50.45 154.14 50.87 154.87 51.18L156.09 51.69C156.2 51.74 156.31 51.77 156.43 51.8C156.3 51.83 156.17 51.87 156.06 51.93L153.52 53.27C153.08 53.5 153.06 53.88 153.07 54.03C153.09 54.31 153.26 54.71 153.93 54.99L154.65 55.29C154.97 55.43 155.33 55.51 155.69 55.54C156.2 55.59 156.69 55.53 157.01 55.35L159.61 53.97C160.01 53.75 160.03 53.4 160.02 53.25C160.54 53.29 161.05 53.23 161.38 53.05L164.04 51.63C164.42 51.43 164.43 51.09 164.42 50.95C164.42 50.94 164.42 50.94 164.42 50.93C164.91 50.97 165.38 50.91 165.68 50.75C166.07 50.54 166.46 50.34 166.84 50.13C167.15 49.97 167.47 49.86 167.77 49.69C168.05 49.55 168.31 49.31 168.34 48.93Z" />
							<path id="&lt;Path&gt;" class="shp21" d="M134.56 50.11C135.07 50.15 135.57 50.1 135.91 49.93L139.79 48.02C140.25 47.8 140.29 47.44 140.28 47.24C140.26 46.95 140.09 46.54 139.39 46.25L135.24 44.5C134.48 44.18 133.44 44.14 132.88 44.41L128.93 46.29C128.45 46.52 128.4 46.89 128.41 47.09C128.43 47.38 128.6 47.79 129.31 48.09L133.52 49.86C133.84 49.99 134.2 50.07 134.56 50.11Z" />
							<path id="&lt;Path&gt;" class="shp22" d="M79.85 50.98L81.42 51.63C81.76 51.77 82.16 51.86 82.56 51.89C83.13 51.94 83.7 51.88 84.09 51.71L89.31 49.41C89.85 49.17 89.92 48.78 89.91 48.57C89.91 48.27 89.74 47.85 89.02 47.55L87.48 46.9C86.67 46.56 85.52 46.52 84.85 46.81L79.59 49.08C79.03 49.33 78.95 49.73 78.95 49.94C78.96 50.25 79.12 50.67 79.85 50.98Z" />
							<path id="&lt;Path&gt;" class="shp23" d="M104.74 40.16L106.21 40.78C106.54 40.92 106.92 41 107.3 41.04C107.82 41.09 108.33 41.04 108.69 40.88L113.46 38.78C113.96 38.56 114.02 38.2 114.01 37.99C113.99 37.71 113.83 37.3 113.13 37.01L111.68 36.4C110.91 36.07 109.84 36.03 109.24 36.28L104.42 38.36C103.91 38.58 103.85 38.96 103.86 39.16C103.86 39.45 104.03 39.86 104.74 40.16Z" />
							<path id="&lt;Path&gt;" class="shp24" d="M119.97 33.54L121.39 34.14C121.71 34.27 122.08 34.36 122.44 34.4C122.94 34.44 123.42 34.4 123.75 34.25L127.79 32.47L127.79 32.47C128.26 32.27 128.31 31.91 128.3 31.72C128.29 31.44 128.13 31.05 127.44 30.76L126.03 30.16C125.3 29.85 124.27 29.8 123.71 30.04L119.62 31.8C119.14 32.01 119.09 32.37 119.1 32.57C119.11 32.85 119.27 33.25 119.97 33.54Z" />
							<path id="&lt;Path&gt;" class="shp25" d="M112.99 36.57L114.44 37.18C114.76 37.32 115.14 37.4 115.51 37.44C116.02 37.49 116.51 37.44 116.85 37.29L120.46 35.7C120.94 35.49 121 35.13 120.99 34.93C120.98 34.65 120.82 34.25 120.12 33.95L118.69 33.35C117.94 33.03 116.89 32.98 116.31 33.23L112.67 34.81C112.17 35.02 112.11 35.39 112.12 35.59C112.13 35.87 112.29 36.27 112.99 36.57Z" />
							<path id="&lt;Path&gt;" class="shp26" d="M96.93 43.55L98.43 44.18C98.77 44.32 99.15 44.41 99.54 44.45C100.07 44.49 100.6 44.44 100.97 44.28L105.17 42.43C105.68 42.21 105.74 41.83 105.73 41.63C105.72 41.34 105.56 40.93 104.85 40.63L103.37 40.01C102.59 39.68 101.49 39.63 100.87 39.9L96.63 41.73C96.1 41.96 96.03 42.34 96.04 42.55C96.05 42.84 96.21 43.25 96.93 43.55Z" />
							<path id="&lt;Path&gt;" class="shp27" d="M88.95 47.02L90.49 47.66C90.82 47.8 91.22 47.89 91.61 47.93C92.16 47.97 92.71 47.92 93.09 47.75L97.32 45.89C97.85 45.65 97.92 45.27 97.91 45.06C97.9 44.76 97.74 44.35 97.02 44.05L95.51 43.42C94.72 43.08 93.59 43.04 92.95 43.32L88.67 45.16C88.13 45.4 88.05 45.79 88.06 46C88.07 46.3 88.23 46.72 88.95 47.02Z" />
							<path id="&lt;Path&gt;" class="shp28" d="M140.84 48.91C140.86 49.2 141.03 49.6 141.73 49.9L145.83 51.63C146.24 51.8 146.67 51.9 147.13 51.95L147.13 51.95C147.16 51.95 147.19 51.95 147.23 51.96C147.48 51.98 147.9 51.94 148.27 51.74L159.66 45.92C160.09 45.7 160.11 45.32 160.1 45.17C160.08 44.88 159.91 44.49 159.22 44.19L155.15 42.48C154.42 42.17 153.43 42.13 152.9 42.39L141.33 48.12C140.87 48.34 140.83 48.71 140.84 48.91Z" />
							<path id="&lt;Path&gt;" class="shp29" d="M69.37 81.98C69.37 81.71 69.24 81.21 68.43 80.87L63.53 78.84C62.64 78.47 61.34 78.47 60.57 78.83L46.95 85.31C46.29 85.62 46.2 86.09 46.2 86.34C46.2 86.61 46.33 87.12 47.16 87.46L52.27 89.56C52.68 89.73 53.17 89.86 53.54 89.88C53.67 89.89 53.79 89.89 53.88 89.87L53.88 89.88C54.47 89.83 54.98 89.7 55.42 89.48L68.69 82.96C69.3 82.66 69.38 82.22 69.37 81.98Z" />
							<path id="&lt;Path&gt;" class="shp30" d="M120.8 36.85C120.82 37.14 120.98 37.54 121.67 37.85L124.96 39.3C125.29 39.45 125.68 39.54 126.06 39.57C126.54 39.62 127.01 39.57 127.33 39.43L135.47 35.71C135.92 35.51 135.97 35.15 135.96 34.96C135.95 34.68 135.78 34.28 135.09 33.99L131.77 32.59C131.03 32.27 130.02 32.22 129.46 32.47L121.33 36.08C120.85 36.29 120.8 36.65 120.8 36.85Z" />
							<path id="&lt;Path&gt;" class="shp31" d="M133.05 38.12C133.06 38.41 133.23 38.81 133.93 39.1L136.88 40.35C137.57 40.63 137.7 40.67 138.16 40.74C138.66 40.82 139.38 40.52 139.47 40.48C139.65 40.39 139.8 40.31 139.93 40.23C140.13 40.11 140.28 40.03 140.43 40.01C140.68 39.97 141.38 40.27 141.89 40.49L147.69 42.93C148 43.07 148.35 43.15 148.7 43.18C149.18 43.23 149.65 43.18 149.97 43.02L151.27 42.38C151.72 42.16 151.74 41.78 151.73 41.63C151.71 41.35 151.54 40.95 150.85 40.66L139.42 35.82C138.68 35.51 137.67 35.46 137.12 35.71L133.55 37.36C133.09 37.57 133.04 37.93 133.05 38.12Z" />
							<path id="&lt;Path&gt;" class="shp32" d="M32.77 71.44L34.51 72.16C34.87 72.31 35.31 72.4 35.75 72.43C36.41 72.48 37.09 72.4 37.57 72.19L43.04 69.78C43.69 69.49 43.78 69.05 43.78 68.81C43.78 68.49 43.62 68.04 42.85 67.72L41.15 67.02C40.26 66.65 38.93 66.63 38.14 66.98L32.62 69.36C31.94 69.65 31.84 70.1 31.84 70.34C31.83 70.67 31.99 71.12 32.77 71.44Z" />
							<path id="&lt;Path&gt;" class="shp33" d="M41.68 77.85C41.68 77.58 41.55 77.08 40.73 76.74L36.6 75.04C35.68 74.66 34.32 74.66 33.5 75.02L27.92 77.5C27.23 77.8 27.13 78.27 27.12 78.52C27.12 78.79 27.24 79.3 28.07 79.64L32.28 81.36C32.65 81.52 33.09 81.61 33.54 81.64C34.22 81.68 34.92 81.59 35.42 81.37L40.92 78.86C41.58 78.55 41.68 78.1 41.68 77.85Z" />
							<path id="&lt;Path&gt;" class="shp34" d="M42.94 67.02L44.64 67.72C45 67.87 45.43 67.96 45.86 68C46.5 68.05 47.15 67.97 47.62 67.76L52.87 65.45C53.5 65.18 53.59 64.74 53.59 64.51C53.59 64.19 53.42 63.75 52.66 63.43L51 62.74C50.12 62.38 48.83 62.36 48.07 62.69L42.76 64.98C42.11 65.26 42.02 65.7 42.02 65.94C42.02 66.26 42.18 66.71 42.94 67.02Z" />
							<path id="&lt;Path&gt;" class="shp35" d="M85.35 59.51L80.94 61.54C80.37 61.8 80.3 62.22 80.3 62.44C80.31 62.75 80.47 63.19 81.22 63.5L84.78 64.98C85.13 65.12 85.53 65.21 85.93 65.24C86.52 65.29 87.11 65.22 87.52 65.02L91.87 62.97C92.42 62.71 92.49 62.3 92.48 62.08C92.47 61.77 92.3 61.34 91.56 61.03L88.06 59.57C87.23 59.22 86.04 59.2 85.35 59.51Z" />
							<path id="&lt;Path&gt;" class="shp36" d="M57.12 78.74C57.11 78.47 56.99 77.97 56.17 77.63L52.37 76.07L52.37 76.07C51.48 75.7 50.15 75.69 49.37 76.05L37.59 81.47C36.92 81.78 36.82 82.24 36.82 82.49C36.82 82.76 36.94 83.27 37.77 83.61L41.69 85.22C42.05 85.37 42.49 85.46 42.93 85.49C43.61 85.54 44.3 85.44 44.79 85.21L56.4 79.73C57.03 79.43 57.12 78.98 57.12 78.74Z" />
							<path id="&lt;Path&gt;" class="shp37" d="M71.17 54.75L72.77 55.41C73.12 55.56 73.52 55.65 73.93 55.68C74.51 55.73 75.1 55.67 75.51 55.49L80.16 53.44L80.16 53.44C80.72 53.19 80.8 52.79 80.79 52.57C80.79 52.27 80.63 51.84 79.89 51.53L78.32 50.88C77.5 50.54 76.31 50.5 75.62 50.8L70.93 52.82C70.35 53.07 70.26 53.48 70.27 53.7C70.27 54.01 70.43 54.44 71.17 54.75Z" />
							<path id="&lt;Path&gt;" class="shp38" d="M52.72 62.77L54.38 63.46C54.74 63.61 55.16 63.7 55.58 63.73C56.2 63.78 56.83 63.71 57.28 63.51L62.33 61.29C62.93 61.02 63.02 60.6 63.02 60.37C63.01 60.06 62.85 59.62 62.1 59.31L60.47 58.63C59.61 58.28 58.36 58.25 57.62 58.57L52.51 60.77C51.89 61.04 51.8 61.47 51.8 61.7C51.8 62.02 51.96 62.46 52.72 62.77Z" />
							<path id="&lt;Path&gt;" class="shp39" d="M62.12 58.68L63.75 59.36C64.1 59.51 64.52 59.6 64.93 59.63C65.53 59.68 66.14 59.61 66.57 59.42L71.43 57.28C72.02 57.02 72.1 56.61 72.09 56.39C72.09 56.08 71.93 55.65 71.18 55.34L69.58 54.67C68.74 54.32 67.52 54.29 66.81 54.6L61.9 56.72C61.29 56.98 61.21 57.4 61.21 57.63C61.21 57.94 61.37 58.37 62.12 58.68Z" />
							<path id="&lt;Path&gt;" class="shp40" d="M33.67 73.41L33.72 73.33L33.66 73.08C33.59 72.73 33.24 72.43 32.62 72.17L30.9 71.47C29.99 71.09 28.63 71.08 27.8 71.44L20.67 74.52C19.97 74.82 19.85 75.28 19.85 75.54C19.85 75.81 19.96 76.31 20.79 76.65L22.57 77.38C22.94 77.53 23.39 77.63 23.84 77.66C24.53 77.71 25.23 77.62 25.74 77.4L32.75 74.31C33.29 74.07 33.6 73.77 33.67 73.41Z" />
							<path id="&lt;Path&gt;" class="shp41" d="M71.31 85.01L76.3 87.07C76.65 87.21 77.07 87.3 77.49 87.33C78.13 87.37 78.77 87.28 79.22 87.05L83.82 84.69C84.4 84.4 84.48 83.96 84.47 83.72C84.46 83.46 84.32 82.96 83.52 82.62L78.8 80.67C78.14 80.41 77.56 80.29 77.34 80.24L77.28 80.23L77.28 80.23C76.96 80.15 76.24 80.34 75.74 80.59L71.04 82.92C70.43 83.22 70.35 83.67 70.36 83.9C70.36 84.17 70.5 84.68 71.31 85.01Z" />
							<path id="&lt;Path&gt;" class="shp42" d="M65.23 78.8L70.13 80.82C70.48 80.97 70.9 81.06 71.32 81.09C71.95 81.13 72.6 81.04 73.04 80.82L77.7 78.54L77.7 78.54C78.29 78.25 78.37 77.81 78.36 77.58C78.35 77.31 78.22 76.82 77.42 76.49L72.6 74.5C71.72 74.13 70.45 74.13 69.71 74.48L64.98 76.73C64.36 77.02 64.28 77.47 64.28 77.7C64.29 77.97 64.42 78.47 65.23 78.8Z" />
							<path id="&lt;Path&gt;" class="shp43" d="M54.22 76L58 77.56C58.36 77.7 58.79 77.79 59.21 77.82C59.86 77.87 60.51 77.79 60.97 77.57L65.83 75.27C66.44 74.98 66.52 74.54 66.52 74.31C66.51 74.05 66.39 73.55 65.58 73.22L62.12 71.79C61.48 71.53 60.94 71.41 60.71 71.36L60.63 71.34L60.63 71.34C60.35 71.27 59.6 71.35 58.97 71.64L54 73.92C53.37 74.21 53.28 74.66 53.28 74.9C53.28 75.17 53.41 75.66 54.22 76Z" />
							<path id="&lt;Path&gt;" class="shp44" d="M86.47 82.93L86.47 82.92C86.78 82.93 87.51 82.81 87.99 82.56L92.51 80.25C93.07 79.97 93.14 79.54 93.13 79.31C93.12 79.05 92.98 78.56 92.18 78.23L87.37 76.23C86.51 75.88 85.27 75.87 84.56 76.22L79.97 78.5C79.38 78.79 79.3 79.22 79.31 79.46C79.32 79.72 79.45 80.22 80.26 80.55L85.13 82.56C85.84 82.85 86.3 82.92 86.47 82.93Z" />
							<path id="&lt;Path&gt;" class="shp45" d="M50.5 72.32L46.56 70.7C45.85 70.4 45.22 70.32 44.98 70.29L44.98 70.29C44.66 70.24 43.99 70.37 43.45 70.61L38.27 72.91C37.61 73.2 37.51 73.65 37.51 73.9C37.51 74.16 37.63 74.67 38.45 75L42.57 76.7C42.94 76.85 43.37 76.94 43.81 76.97C44.47 77.02 45.14 76.93 45.62 76.71L50.7 74.39C51.34 74.1 51.43 73.65 51.43 73.41C51.43 73.15 51.31 72.65 50.5 72.32Z" />
							<path id="&lt;Path&gt;" class="shp46" d="M62.19 62.3L57.41 64.42C56.79 64.69 56.7 65.13 56.7 65.36C56.7 65.62 56.82 66.11 57.62 66.45L61.47 68.1C61.83 68.26 62.26 68.36 62.7 68.39C63.31 68.44 63.92 68.36 64.35 68.17L69.18 65.96C69.78 65.69 69.86 65.26 69.86 65.03C69.85 64.72 69.69 64.28 68.93 63.97L65.04 62.35C64.18 62 62.93 61.97 62.19 62.3Z" />
							<path id="&lt;Path&gt;" class="shp47" d="M53.78 72.67C53.79 72.67 53.79 72.67 53.8 72.67L53.8 72.66C54.16 72.72 54.86 72.49 55.22 72.33L60.12 70.09C60.74 69.81 60.82 69.38 60.82 69.15C60.81 68.83 60.65 68.38 59.89 68.06L55.92 66.42C55.04 66.06 53.76 66.04 52.99 66.38L48.03 68.58C47.39 68.86 47.29 69.31 47.29 69.54C47.29 69.87 47.46 70.32 48.22 70.64L52.25 72.29C52.96 72.59 53.58 72.66 53.78 72.67Z" />
							<path id="&lt;Path&gt;" class="shp48" d="M94.9 78.45C95.5 78.5 96.11 78.41 96.52 78.2L100.87 75.98C101.41 75.7 101.48 75.28 101.47 75.06C101.46 74.8 101.32 74.32 100.53 73.99L95.81 72.03C94.96 71.68 93.76 71.67 93.07 72.01L88.65 74.2C88.08 74.48 88.01 74.9 88.02 75.13C88.03 75.39 88.16 75.88 88.96 76.21L93.75 78.2C94.1 78.34 94.5 78.43 94.9 78.45Z" />
							<path id="&lt;Path&gt;" class="shp49" d="M133.37 58.85C133.9 58.89 134.41 58.83 134.76 58.65L138.38 56.8C138.85 56.56 138.89 56.19 138.88 55.99C138.86 55.69 138.69 55.28 137.97 54.98L133.68 53.17C132.9 52.85 131.84 52.82 131.25 53.11L127.57 54.93C127.08 55.17 127.03 55.55 127.04 55.76C127.06 56.05 127.23 56.47 127.95 56.77L132.31 58.6C132.63 58.73 133 58.82 133.37 58.85Z" />
							<path id="&lt;Path&gt;" class="shp50" d="M140.28 55.33C140.79 55.37 141.29 55.31 141.63 55.14L145.14 53.34C145.59 53.12 145.64 52.75 145.62 52.55C145.6 52.26 145.43 51.85 144.72 51.55L140.5 49.77C139.74 49.45 138.7 49.42 138.13 49.7L134.56 51.47C134.09 51.7 134.04 52.07 134.05 52.28C134.07 52.57 134.24 52.98 134.95 53.28L139.24 55.08C139.55 55.21 139.92 55.3 140.28 55.33Z" />
							<path id="&lt;Path&gt;" class="shp51" d="M71.05 58.37L66.45 60.41C65.85 60.68 65.77 61.1 65.77 61.33C65.77 61.64 65.94 62.08 66.69 62.39L70.56 64C71.12 64.23 71.59 64.31 71.85 64.34L71.85 64.34L72.03 64.35C72.06 64.35 72.68 64.36 73.37 64.05L77.92 61.98C78.49 61.71 78.57 61.3 78.56 61.07C78.55 60.76 78.39 60.33 77.65 60.02L73.83 58.43C72.98 58.08 71.77 58.05 71.05 58.37Z" />
							<path id="&lt;Path&gt;" class="shp52" d="M103.17 74.24C103.75 74.28 104.34 74.21 104.74 74L108.89 71.88C109.41 71.61 109.47 71.2 109.46 70.98C109.45 70.73 109.31 70.25 108.53 69.93L103.9 68C103.07 67.65 101.9 67.64 101.23 67.97L97.01 70.06C96.46 70.33 96.4 70.74 96.41 70.97C96.42 71.22 96.55 71.71 97.34 72.03L102.04 73.98C102.38 74.13 102.77 74.21 103.17 74.24Z" />
							<path id="&lt;Path&gt;" class="shp53" d="M111.1 70.2C111.67 70.24 112.23 70.17 112.62 69.97L116.65 67.91C117.16 67.65 117.22 67.25 117.21 67.04C117.19 66.78 117.06 66.31 116.28 65.99L111.74 64.1C110.93 63.76 109.78 63.74 109.14 64.05L105.03 66.09C104.5 66.35 104.44 66.75 104.45 66.97C104.46 67.28 104.64 67.72 105.38 68.03L109.99 69.95C110.32 70.08 110.71 70.17 111.1 70.2Z" />
							<path id="&lt;Path&gt;" class="shp54" d="M118.84 66.29L118.84 66.28C118.88 66.3 118.94 66.3 119.01 66.31C119.32 66.33 119.81 66.29 120.23 66.08L123.87 64.22C124.36 63.97 124.42 63.58 124.4 63.37C124.39 63.06 124.21 62.64 123.49 62.33L119.07 60.49C118.63 60.3 118.14 60.18 117.69 60.14L117.69 60.14C117.42 60.1 116.89 60.22 116.49 60.42L112.8 62.24C112.29 62.49 112.23 62.89 112.24 63.1C112.26 63.41 112.43 63.84 113.16 64.15L117.48 65.95C118.11 66.21 118.61 66.26 118.84 66.29Z" />
							<path id="&lt;Path&gt;" class="shp55" d="M125.92 62.65C126.46 62.69 126.99 62.62 127.35 62.44L131.4 60.37C131.88 60.13 131.93 59.74 131.92 59.54C131.9 59.24 131.72 58.82 131 58.52L126.74 56.73C126.1 56.46 125.58 56.41 125.37 56.39L125.37 56.39C125.12 56.34 124.61 56.4 124.16 56.62L120.03 58.66C119.53 58.91 119.47 59.3 119.48 59.51C119.5 59.81 119.67 60.23 120.4 60.54L124.84 62.4C125.17 62.53 125.55 62.62 125.92 62.65Z" />
							<path id="&lt;Path&gt;" class="shp56" d="M78.35 63.09L78.35 63.09C78.02 63.03 77.29 63.22 76.88 63.41L72.3 65.51C71.71 65.78 71.62 66.21 71.63 66.44C71.64 66.75 71.8 67.2 72.56 67.51L76.09 68.97C76.77 69.26 77.02 69.3 77.41 69.33C77.45 69.34 77.49 69.34 77.53 69.34C77.99 69.37 78.32 69.37 78.99 69.05L83.51 66.92C84.08 66.65 84.15 66.23 84.14 66.01C84.14 65.69 83.97 65.25 83.22 64.95L79.76 63.5C79.09 63.23 78.56 63.13 78.35 63.09Z" />
							<path id="&lt;Path&gt;" class="shp57" d="M105.21 64.59C105.24 64.6 105.27 64.6 105.3 64.6C105.78 64.62 106.02 64.62 106.64 64.31L110.75 62.3C111.26 62.04 111.32 61.65 111.31 61.43C111.3 61.13 111.13 60.7 110.4 60.4L105.94 58.53C105.12 58.19 103.98 58.17 103.33 58.47L99.2 60.44C98.66 60.7 98.6 61.1 98.61 61.32C98.62 61.63 98.79 62.06 99.52 62.36L103.9 64.18C104.5 64.44 104.8 64.56 105.21 64.59Z" />
							<path id="&lt;Path&gt;" class="shp58" d="M112.91 60.72C113.46 60.76 114 60.7 114.37 60.51L118.01 58.72C118.52 58.48 118.57 58.09 118.56 57.88C118.54 57.58 118.37 57.16 117.65 56.86L113.27 55.02C112.47 54.69 111.35 54.66 110.73 54.96L107.02 56.72C106.5 56.97 106.44 57.36 106.45 57.57C106.46 57.88 106.63 58.3 107.36 58.61L111.81 60.46C112.14 60.6 112.52 60.69 112.91 60.72Z" />
							<path id="&lt;Path&gt;" class="shp59" d="M127.6 53.52C128.13 53.56 128.64 53.5 128.99 53.33L132.64 51.54C133.11 51.31 133.16 50.94 133.14 50.74C133.13 50.44 132.95 50.03 132.25 49.73L128.02 47.96C127.25 47.63 126.19 47.6 125.6 47.88L121.89 49.64C121.4 49.88 121.34 50.25 121.35 50.46C121.37 50.75 121.54 51.17 122.25 51.47L126.54 53.26C126.86 53.4 127.23 53.49 127.6 53.52Z" />
							<path id="&lt;Path&gt;" class="shp60" d="M97.19 68.42C97.77 68.46 98.35 68.39 98.75 68.19L102.93 66.14C103.46 65.88 103.52 65.47 103.51 65.26C103.5 64.95 103.33 64.51 102.59 64.2L98.04 62.31C97.22 61.97 96.05 61.94 95.38 62.26L91.13 64.28C90.57 64.55 90.5 64.96 90.51 65.18C90.52 65.49 90.69 65.93 91.44 66.24L96.05 68.16C96.39 68.3 96.79 68.39 97.19 68.42Z" />
							<path id="&lt;Path&gt;" class="shp61" d="M119.88 57.1C120.41 57.14 120.93 57.09 121.28 56.93L125.57 54.97C126.07 54.75 126.13 54.37 126.12 54.17C126.11 53.87 125.94 53.46 125.22 53.16L120.92 51.36C120.14 51.03 119.05 50.99 118.44 51.28L114.29 53.26C113.79 53.5 113.73 53.88 113.74 54.09C113.76 54.39 113.92 54.81 114.65 55.11L118.76 56.84C119.1 56.98 119.5 57.07 119.88 57.1Z" />
							<path id="&lt;Path&gt;" class="shp62" d="M88.86 72.49C89.46 72.54 90.06 72.46 90.48 72.26L94.86 70.11L94.86 70.11C95.41 69.83 95.47 69.42 95.46 69.2C95.45 68.94 95.32 68.46 94.54 68.14L90.42 66.43L90 66.25C89.51 66.04 89.22 65.91 88.83 65.87C88.33 65.81 87.95 65.8 87.29 66.11L82.71 68.29C82.14 68.56 82.07 68.98 82.07 69.21C82.08 69.47 82.21 69.95 83 70.28L87.71 72.23C88.06 72.38 88.46 72.46 88.86 72.49Z" />
							<path id="&lt;Path&gt;" class="shp63" d="M68.07 67.46L63.32 69.64C62.71 69.92 62.63 70.35 62.63 70.59C62.63 70.91 62.8 71.36 63.56 71.67L67.27 73.2C67.62 73.35 68.04 73.44 68.46 73.47C69.08 73.52 69.71 73.44 70.15 73.23L74.84 71.02C75.42 70.74 75.5 70.31 75.5 70.08C75.49 69.76 75.32 69.32 74.57 69.01L70.92 67.49C70.06 67.14 68.8 67.12 68.07 67.46Z" />
							<path id="&lt;Path&gt;" class="shp64" d="M74.25 74.48L78.69 76.31C79.26 76.55 79.78 76.67 80.06 76.73C80.13 76.75 80.18 76.76 80.21 76.77L80.21 76.77C80.27 76.79 80.35 76.8 80.43 76.81C80.81 76.84 81.39 76.72 81.83 76.51L86.44 74.24C87.01 73.96 87.08 73.54 87.07 73.31C87.06 73.05 86.93 72.56 86.14 72.24L81.41 70.27C80.55 69.92 79.32 69.91 78.6 70.25L73.98 72.45C73.39 72.73 73.31 73.16 73.31 73.39C73.32 73.65 73.45 74.15 74.25 74.48Z" />
							<path id="&lt;Path&gt;" class="shp65" d="M123.82 39.1L120.4 37.66C119.64 37.34 118.59 37.29 118 37.55L114.27 39.21C113.78 39.43 113.72 39.8 113.73 40C113.74 40.29 113.9 40.69 114.61 40.99L118.56 42.65C118.92 42.8 119.2 42.92 119.28 42.95C119.31 42.97 119.34 42.99 119.38 42.99C119.5 43 119.72 42.9 120.5 42.54L124.17 40.87C124.65 40.65 124.71 40.28 124.7 40.09C124.68 39.8 124.52 39.4 123.82 39.1Z" />
							<path id="&lt;Path&gt;" class="shp66" d="M87.79 50.95L83.51 52.85C82.95 53.1 82.87 53.5 82.88 53.72C82.89 54.02 83.05 54.45 83.78 54.75L87.52 56.31C87.86 56.45 88.25 56.54 88.65 56.57C89.22 56.62 89.79 56.56 90.19 56.38L94.4 54.45C94.94 54.21 95.01 53.81 95 53.6C94.99 53.29 94.83 52.87 94.1 52.57L90.42 51.03C89.61 50.69 88.45 50.66 87.79 50.95Z" />
							<path id="&lt;Path&gt;" class="shp67" d="M140.62 46.39C140.93 46.52 141.29 46.6 141.65 46.64C142.14 46.68 142.63 46.63 142.95 46.47L146.91 44.52C147.36 44.3 147.4 43.95 147.39 43.76C147.37 43.47 147.2 43.07 146.5 42.78L142.43 41.06C141.69 40.74 140.67 40.7 140.12 40.96L136.09 42.88C135.63 43.1 135.58 43.46 135.59 43.66C135.61 43.95 135.78 44.35 136.48 44.65L140.62 46.39L140.62 46.39Z" />
							<path id="&lt;Path&gt;" class="shp68" d="M104.92 43.82L104.85 43.8L104.85 43.8C104.6 43.73 103.96 43.78 103.45 44L99.13 45.92C98.6 46.15 98.54 46.54 98.54 46.75C98.55 47.05 98.72 47.46 99.44 47.76L103.03 49.27C103.37 49.41 103.75 49.5 104.14 49.53C104.68 49.58 105.21 49.52 105.58 49.35L109.81 47.42C110.32 47.19 110.38 46.81 110.37 46.6C110.36 46.31 110.19 45.9 109.48 45.6L106.17 44.21C105.6 43.97 105.12 43.86 104.92 43.82Z" />
							<path id="&lt;Path&gt;" class="shp69" d="M96.9 47.33L96.9 47.34C96.65 47.28 95.98 47.31 95.45 47.55L91.6 49.26C91.06 49.5 90.99 49.89 91 50.11C91.01 50.41 91.17 50.83 91.9 51.13L95.56 52.66C95.89 52.8 96.29 52.89 96.68 52.92C97.23 52.97 97.78 52.91 98.16 52.74L101.94 51.01C102.46 50.77 102.53 50.39 102.52 50.18C102.51 49.88 102.34 49.46 101.62 49.16L98.19 47.72C97.57 47.46 97.11 47.37 96.9 47.33Z" />
							<path id="&lt;Path&gt;" class="shp70" d="M79.55 54.6L75.15 56.55C74.58 56.81 74.5 57.22 74.5 57.44C74.51 57.75 74.67 58.18 75.41 58.49L79.14 60.04C79.6 60.23 80.08 60.36 80.59 60.41L80.59 60.41C80.89 60.45 81.49 60.34 81.95 60.13L86.29 58.16C86.84 57.9 86.92 57.5 86.91 57.28C86.9 56.97 86.74 56.54 86 56.23L82.26 54.67C81.43 54.33 80.24 54.3 79.55 54.6Z" />
							<path id="&lt;Path&gt;" class="shp71" d="M110.83 40.73L106.99 42.44C106.48 42.66 106.41 43.04 106.42 43.25C106.43 43.54 106.6 43.95 107.31 44.25L110.84 45.73C111.17 45.87 111.55 45.95 111.92 45.99C112.45 46.04 112.97 45.98 113.32 45.82L117.11 44.09C117.6 43.87 117.66 43.49 117.65 43.29C117.63 43 117.47 42.6 116.76 42.3L113.28 40.83C112.51 40.51 111.43 40.46 110.83 40.73Z" />
							<path id="&lt;Path&gt;" class="shp72" d="M135.84 40.26L132.69 38.93C131.95 38.61 130.91 38.57 130.35 38.83L126.77 40.47C126.3 40.69 126.25 41.06 126.26 41.25C126.27 41.54 126.44 41.94 127.14 42.24L130.33 43.58C130.65 43.72 131.02 43.8 131.38 43.84C131.88 43.88 132.37 43.83 132.7 43.68L136.23 42.01L136.23 42.01C136.69 41.79 136.73 41.43 136.72 41.24C136.7 40.95 136.54 40.55 135.84 40.26Z" />
						</g>
						<g id="&lt;Group&gt;">
							<g id="&lt;Group&gt;">
								<path id="&lt;Path&gt;" class="shp73" d="M153.34 53.37C152.9 53.6 153.06 54 153.69 54.27L154.41 54.57C155.09 54.86 156.03 54.89 156.5 54.64L159.1 53.26C159.49 53.05 159.34 52.69 158.78 52.46L157.96 52.11C157.29 51.83 156.35 51.79 155.88 52.04L153.34 53.37Z" />
							</g>
							<g id="&lt;Group&gt;">
								<path id="&lt;Path&gt;" class="shp73" d="M103.73 75.47C103.15 75.77 103.28 76.28 104.04 76.59L109.9 79.02C110.65 79.33 111.73 79.34 112.31 79.04L140.93 63.76C141.43 63.5 141.27 63.04 140.57 62.75L135.15 60.48C134.45 60.18 133.46 60.16 132.95 60.42L103.73 75.47Z" />
							</g>
							<g id="&lt;Group&gt;">
								<path id="&lt;Path&gt;" class="shp73" d="M143.76 54.85C143.27 55.1 143.44 55.54 144.12 55.83L149.42 58.06C150.1 58.34 151.04 58.37 151.51 58.12L154.54 56.5C155.01 56.25 154.84 55.82 154.17 55.53L148.94 53.33C148.26 53.05 147.33 53.02 146.85 53.26L143.76 54.85Z" />
							</g>
							<g id="&lt;Group&gt;">
								<path id="&lt;Path&gt;" class="shp73" d="M94.9 80.02C94.29 80.34 94.42 80.85 95.19 81.17L101.18 83.65C101.95 83.97 103.06 83.97 103.66 83.65L108.48 81.07C109.06 80.76 108.92 80.26 108.16 79.94L102.28 77.5C101.52 77.19 100.42 77.18 99.83 77.48L94.9 80.02Z" />
							</g>
							<g id="&lt;Group&gt;">
								<path id="&lt;Path&gt;" class="shp73" d="M136.3 58.7C135.8 58.95 135.96 59.4 136.65 59.69L142.06 61.96C142.75 62.25 143.72 62.27 144.21 62.01L148.35 59.8C148.83 59.55 148.67 59.1 147.98 58.82L142.71 56.6C142.02 56.31 141.06 56.28 140.57 56.53L136.3 58.7Z" />
							</g>
							<g id="&lt;Group&gt;">
								<path id="&lt;Path&gt;" class="shp73" d="M69.62 84.85C68.83 84.51 67.63 84.5 66.96 84.83L57.68 89.43C56.98 89.77 57.08 90.33 57.9 90.67L63.04 92.78C63.86 93.12 65.09 93.1 65.78 92.76L74.77 88.16C75.43 87.83 75.31 87.28 74.51 86.95L69.62 84.85Z" />
							</g>
							<g id="&lt;Group&gt;">
								<path id="&lt;Path&gt;" class="shp73" d="M86.41 84.39C85.78 84.72 85.91 85.25 86.69 85.57L92.8 88.09C93.58 88.42 94.73 88.41 95.35 88.08L99.68 85.77C100.28 85.45 100.15 84.92 99.37 84.61L93.36 82.12C92.59 81.8 91.46 81.8 90.84 82.11L86.41 84.39Z" />
							</g>
							<g id="&lt;Group&gt;">
								<path id="&lt;Path&gt;" class="shp73" d="M78.19 88.63C77.54 88.97 77.66 89.51 78.46 89.84L84.68 92.4C85.48 92.73 86.66 92.72 87.29 92.38L91.22 90.29C91.84 89.95 91.71 89.41 90.93 89.09L84.79 86.56C84.01 86.23 82.84 86.24 82.2 86.57L78.19 88.63Z" />
							</g>
							<g id="&lt;Group&gt;">
								<path id="&lt;Path&gt;" class="shp73" d="M68.23 93.76C67.55 94.11 67.66 94.68 68.48 95.01L74.84 97.62C75.65 97.96 76.87 97.94 77.54 97.58L83.02 94.66C83.67 94.31 83.54 93.76 82.74 93.43L76.49 90.86C75.69 90.53 74.49 90.54 73.82 90.88L68.23 93.76Z" />
							</g>
							<g id="&lt;Group&gt;">
								<path id="&lt;Path&gt;" class="shp73" d="M110.21 48.35C109.76 48.31 109.49 48.31 108.95 48.55L105.23 50.26C104.68 50.52 104.81 50.97 105.52 51.26L108.61 52.56C109.32 52.85 109.88 52.94 109.93 52.96C109.97 52.99 110.57 53.02 111.11 52.77L114.78 51.04C115.31 50.79 115.17 50.35 114.47 50.05L111.45 48.79C110.75 48.49 110.65 48.39 110.21 48.35Z" />
							</g>
							<g id="&lt;Group&gt;">
								<path id="&lt;Path&gt;" class="shp73" d="M157.8 51.4C157.46 51.58 157.58 51.9 158.08 52.11L158.94 52.47C159.65 52.77 160.64 52.81 161.13 52.55L163.79 51.13C164.12 50.95 163.99 50.64 163.5 50.43L162.65 50.07C161.94 49.77 160.97 49.74 160.49 49.99L157.8 51.4Z" />
							</g>
							<g id="&lt;Group&gt;">
								<path id="&lt;Path&gt;" class="shp73" d="M97.47 53.83C96.9 54.09 97.03 54.55 97.75 54.85L101.14 56.27C101.86 56.57 102.41 56.59 102.42 56.59C102.42 56.6 102.95 56.62 103.51 56.35L107.55 54.45C108.1 54.19 107.96 53.74 107.25 53.44L103.87 52.02C103.16 51.73 102.12 51.69 101.57 51.95L97.47 53.83Z" />
							</g>
							<g id="&lt;Group&gt;">
								<path id="&lt;Path&gt;" class="shp73" d="M94.82 55.31C94.81 55.3 94.27 55.3 93.69 55.57L89.47 57.51C88.88 57.78 89.01 58.25 89.74 58.56L93.24 60.01C93.97 60.32 95.05 60.34 95.63 60.07L99.78 58.11C100.34 57.85 100.21 57.38 99.49 57.08L96.16 55.69C95.44 55.39 94.84 55.32 94.82 55.31Z" />
							</g>
							<g id="&lt;Group&gt;">
								<path id="&lt;Path&gt;" class="shp73" d="M129.32 44.18C129.82 43.94 129.67 43.52 129 43.24L125.8 41.89C125.12 41.6 124.16 41.56 123.66 41.79L119.97 43.49C119.46 43.72 119.6 44.15 120.29 44.44L123.53 45.8C124.22 46.09 125.19 46.13 125.69 45.89L129.32 44.18Z" />
							</g>
							<g id="&lt;Group&gt;">
								<path id="&lt;Path&gt;" class="shp73" d="M117.86 44.86C117.56 44.8 117.14 44.79 116.62 45.03L112.44 46.95C111.91 47.19 112.05 47.63 112.74 47.92L116.04 49.31C116.5 49.5 116.92 49.59 117.29 49.57C117.59 49.62 117.91 49.56 118.26 49.39L122.32 47.48C122.83 47.24 122.69 46.81 122.01 46.52L119.11 45.3C118.42 45.01 118.16 44.93 117.86 44.86Z" />
							</g>
							<g id="&lt;Group&gt;">
								<path id="&lt;Path&gt;" class="shp73" d="M163.07 50.05C163.75 50.33 164.68 50.37 165.13 50.13L167.54 48.85C167.8 48.71 167.69 48.46 167.3 48.29L166.24 47.84C165.57 47.56 164.65 47.52 164.2 47.76L161.69 49.07C161.46 49.19 161.55 49.41 161.89 49.55L163.07 50.05Z" />
							</g>
							<g id="&lt;Group&gt;" style="opacity: 0.702">
								<path id="&lt;Path&gt;" class="shp73" d="M129.12 46.09C128.62 46.33 128.77 46.76 129.45 47.04L133.66 48.81C134.34 49.1 135.3 49.14 135.78 48.9L139.67 46.99C140.15 46.76 139.99 46.33 139.32 46.05L135.17 44.3C134.5 44.02 133.56 43.98 133.07 44.21L129.12 46.09Z" />
							</g>
							<g id="&lt;Group&gt;">
								<path id="&lt;Path&gt;" class="shp73" d="M89.2 48.35C89.77 48.1 89.66 47.65 88.94 47.35L87.4 46.7C86.68 46.4 85.62 46.36 85.04 46.61L79.78 48.88C79.19 49.14 79.3 49.6 80.03 49.9L81.59 50.56C82.32 50.86 83.4 50.9 83.99 50.64L89.2 48.35Z" />
							</g>
							<g id="&lt;Group&gt;">
								<path id="&lt;Path&gt;" class="shp73" d="M113.35 37.74C113.87 37.51 113.73 37.09 113.06 36.81L111.6 36.2C110.93 35.91 109.95 35.86 109.43 36.09L104.61 38.16C104.08 38.39 104.2 38.82 104.89 39.11L106.37 39.73C107.06 40.02 108.05 40.07 108.58 39.83L113.35 37.74Z" />
							</g>
							<g id="&lt;Group&gt;">
								<path id="&lt;Path&gt;" class="shp73" d="M127.68 31.44C128.16 31.23 128.02 30.83 127.37 30.56L125.97 29.96C125.31 29.69 124.38 29.63 123.89 29.84L119.81 31.6C119.31 31.82 119.45 32.22 120.11 32.5L121.54 33.1C122.2 33.38 123.15 33.44 123.64 33.22L127.68 31.44Z" />
							</g>
							<g id="&lt;Group&gt;">
								<path id="&lt;Path&gt;" class="shp73" d="M120.35 34.66C120.85 34.44 120.71 34.03 120.05 33.75L118.62 33.15C117.95 32.87 117 32.82 116.5 33.03L112.85 34.61C112.34 34.83 112.47 35.24 113.15 35.53L114.59 36.14C115.27 36.42 116.24 36.47 116.74 36.25L120.35 34.66Z" />
							</g>
							<g id="&lt;Group&gt;">
								<path id="&lt;Path&gt;" class="shp73" d="M105.06 41.38C105.59 41.15 105.46 40.72 104.77 40.43L103.29 39.81C102.6 39.51 101.59 39.47 101.05 39.7L96.82 41.53C96.27 41.77 96.39 42.2 97.09 42.5L98.6 43.13C99.3 43.42 100.32 43.47 100.86 43.23L105.06 41.38Z" />
							</g>
							<g id="&lt;Group&gt;">
								<path id="&lt;Path&gt;" class="shp73" d="M97.21 44.83C97.77 44.59 97.64 44.15 96.94 43.85L95.43 43.22C94.73 42.92 93.69 42.88 93.13 43.12L88.86 44.96C88.29 45.21 88.4 45.66 89.12 45.96L90.65 46.6C91.37 46.9 92.41 46.94 92.98 46.69L97.21 44.83Z" />
							</g>
							<g id="&lt;Group&gt;">
								<path id="&lt;Path&gt;" class="shp73" d="M145.97 50.59C146.64 50.87 147.17 50.88 147.19 50.89C147.21 50.9 147.67 50.96 148.14 50.72L159.53 44.91C159.97 44.68 159.8 44.27 159.15 44L155.09 42.28C154.44 42.01 153.54 41.96 153.09 42.19L141.52 47.92C141.04 48.15 141.2 48.58 141.87 48.86L145.97 50.59Z" />
							</g>
							<g id="&lt;Group&gt;">
								<path id="&lt;Path&gt;" class="shp73" d="M68.58 81.87C69.24 81.54 69.13 81.01 68.33 80.68L63.44 78.65C62.64 78.32 61.44 78.31 60.77 78.63L47.15 85.11C46.44 85.45 46.53 86 47.35 86.34L52.46 88.44C53.28 88.78 53.84 88.74 53.85 88.73C53.87 88.72 54.61 88.72 55.31 88.37L68.58 81.87Z" />
							</g>
							<g id="&lt;Group&gt;">
								<path id="&lt;Path&gt;" class="shp73" d="M125.11 38.26C125.78 38.56 126.73 38.61 127.22 38.39L135.35 34.69C135.83 34.47 135.68 34.07 135.02 33.79L131.7 32.39C131.05 32.11 130.13 32.06 129.65 32.27L121.52 35.88C121.02 36.1 121.16 36.52 121.82 36.81L125.11 38.26Z" />
							</g>
							<g id="&lt;Group&gt;">
								<path id="&lt;Path&gt;" class="shp73" d="M137.02 39.31C137.68 39.59 137.79 39.62 138.22 39.68C138.5 39.73 138.88 39.65 139.35 39.45C139.82 39.23 140.06 38.99 140.41 38.95C140.75 38.91 141.44 39.21 142.1 39.49L147.82 41.91C148.47 42.18 149.38 42.22 149.84 42L151.14 41.36C151.6 41.14 151.43 40.73 150.78 40.46L139.84 35.49C139.19 35.22 138.27 35.17 137.8 35.38L133.74 37.16C133.26 37.38 133.41 37.79 134.07 38.07L137.02 39.31Z" />
							</g>
							<g id="&lt;Group&gt;">
								<path id="&lt;Path&gt;" class="shp73" d="M42.94 68.68C43.64 68.37 43.55 67.85 42.76 67.52L41.05 66.82C40.26 66.49 39.03 66.47 38.33 66.77L32.81 69.16C32.09 69.47 32.16 69.99 32.97 70.33L34.71 71.04C35.52 71.38 36.76 71.39 37.47 71.08L42.94 68.68Z" />
							</g>
							<g id="&lt;Group&gt;">
								<path id="&lt;Path&gt;" class="shp73" d="M36.5 74.84C35.68 74.51 34.43 74.5 33.7 74.82L28.12 77.29C27.38 77.62 27.45 78.17 28.27 78.51L32.49 80.24C33.31 80.58 34.59 80.58 35.32 80.25L40.82 77.74C41.53 77.42 41.45 76.88 40.64 76.55L36.5 74.84Z" />
							</g>
							<g id="&lt;Group&gt;">
								<path id="&lt;Path&gt;" class="shp73" d="M52.77 64.35C53.44 64.06 53.35 63.56 52.57 63.24L50.9 62.54C50.12 62.22 48.94 62.2 48.26 62.49L42.96 64.78C42.26 65.08 42.34 65.59 43.14 65.92L44.83 66.62C45.63 66.94 46.84 66.96 47.52 66.66L52.77 64.35Z" />
							</g>
							<g id="&lt;Group&gt;">
								<path id="&lt;Path&gt;" class="shp73" d="M81.14 61.34C80.53 61.62 80.64 62.1 81.39 62.41L84.95 63.9C85.7 64.21 86.81 64.23 87.41 63.95L91.76 61.9C92.34 61.62 92.22 61.14 91.48 60.83L87.97 59.37C87.23 59.06 86.14 59.04 85.55 59.31L81.14 61.34Z" />
							</g>
							<g id="&lt;Group&gt;">
								<path id="&lt;Path&gt;" class="shp73" d="M52.28 75.87C51.48 75.54 50.26 75.53 49.57 75.85L37.79 81.26C37.06 81.6 37.14 82.15 37.97 82.49L41.89 84.1C42.71 84.44 43.97 84.43 44.69 84.1L56.29 78.62C56.98 78.3 56.88 77.77 56.08 77.44L52.28 75.87Z" />
							</g>
							<g id="&lt;Group&gt;">
								<path id="&lt;Path&gt;" class="shp73" d="M80.06 52.37C80.65 52.11 80.54 51.64 79.81 51.34L78.24 50.68C77.5 50.37 76.41 50.34 75.81 50.6L71.12 52.62C70.5 52.89 70.61 53.36 71.35 53.67L72.95 54.33C73.69 54.64 74.8 54.68 75.41 54.41L80.06 52.37Z" />
							</g>
							<g id="&lt;Group&gt;">
								<path id="&lt;Path&gt;" class="shp73" d="M62.23 60.2C62.87 59.92 62.77 59.43 62.01 59.11L60.38 58.43C59.61 58.12 58.46 58.09 57.81 58.37L52.71 60.57C52.04 60.86 52.13 61.35 52.91 61.67L54.57 62.36C55.34 62.68 56.52 62.71 57.18 62.42L62.23 60.2Z" />
							</g>
							<g id="&lt;Group&gt;">
								<path id="&lt;Path&gt;" class="shp73" d="M71.33 56.2C71.95 55.93 71.84 55.45 71.1 55.14L69.49 54.47C68.75 54.16 67.62 54.13 67 54.4L62.09 56.52C61.45 56.8 61.55 57.28 62.3 57.6L63.93 58.27C64.69 58.59 65.83 58.62 66.47 58.34L71.33 56.2Z" />
							</g>
							<g id="&lt;Group&gt;">
								<path id="&lt;Path&gt;" class="shp73" d="M33.31 72.59C33.31 72.58 33.33 72.31 32.52 71.98L30.8 71.27C29.99 70.94 28.73 70.92 28 71.23L20.86 74.31C20.11 74.64 20.17 75.18 21 75.52L22.78 76.25C23.61 76.59 24.9 76.6 25.64 76.28L32.65 73.2C33.38 72.88 33.3 72.59 33.31 72.59Z" />
							</g>
							<g id="&lt;Group&gt;">
								<path id="&lt;Path&gt;" class="shp73" d="M77.23 80.05C77.19 80.03 76.59 80.07 75.94 80.38L71.24 82.71C70.58 83.04 70.69 83.58 71.49 83.9L76.48 85.96C77.27 86.29 78.45 86.29 79.1 85.95L83.7 83.61C84.34 83.28 84.21 82.75 83.43 82.43L78.71 80.48C77.92 80.16 77.25 80.06 77.23 80.05Z" />
							</g>
							<g id="&lt;Group&gt;">
								<path id="&lt;Path&gt;" class="shp73" d="M77.59 77.45C78.22 77.13 78.11 76.62 77.33 76.29L72.51 74.3C71.73 73.98 70.56 73.97 69.91 74.27L65.18 76.53C64.51 76.84 64.62 77.37 65.41 77.7L70.31 79.72C71.1 80.05 72.28 80.05 72.93 79.73L77.59 77.45Z" />
							</g>
							<g id="&lt;Group&gt;">
								<path id="&lt;Path&gt;" class="shp73" d="M62.03 71.6C61.25 71.27 60.61 71.18 60.57 71.16C60.53 71.13 59.84 71.13 59.17 71.43L54.2 73.72C53.52 74.03 53.61 74.56 54.41 74.89L58.19 76.45C58.99 76.78 60.19 76.79 60.86 76.47L65.72 74.18C66.38 73.87 66.27 73.35 65.49 73.02L62.03 71.6Z" />
							</g>
							<g id="&lt;Group&gt;">
								<path id="&lt;Path&gt;" class="shp73" d="M80.17 78.29C79.53 78.61 79.65 79.13 80.43 79.45L85.3 81.47C85.82 81.68 86.23 81.79 86.53 81.81C86.54 81.81 87.25 81.8 87.87 81.48L92.39 79.17C92.99 78.86 92.86 78.35 92.1 78.03L87.29 76.04C86.52 75.72 85.38 75.71 84.76 76.02L80.17 78.29Z" />
							</g>
							<g id="&lt;Group&gt;">
								<path id="&lt;Path&gt;" class="shp73" d="M44.95 70.11C44.93 70.1 44.34 70.1 43.65 70.41L38.47 72.7C37.76 73.02 37.84 73.55 38.65 73.88L42.77 75.58C43.58 75.91 44.81 75.92 45.52 75.6L50.6 73.29C51.29 72.98 51.2 72.45 50.4 72.12L46.47 70.5C45.67 70.17 44.97 70.12 44.95 70.11Z" />
							</g>
							<g id="&lt;Group&gt;">
								<path id="&lt;Path&gt;" class="shp73" d="M69.08 64.87C69.71 64.58 69.61 64.09 68.84 63.77L64.95 62.15C64.19 61.84 63.03 61.81 62.39 62.1L57.61 64.22C56.94 64.51 57.04 65.02 57.81 65.36L61.66 67.01C62.43 67.34 63.59 67.37 64.25 67.07L69.08 64.87Z" />
							</g>
							<g id="&lt;Group&gt;">
								<path id="&lt;Path&gt;" class="shp73" d="M53.88 71.54C53.88 71.54 54.45 71.54 55.12 71.23L60.02 69C60.68 68.7 60.58 68.19 59.8 67.87L55.83 66.22C55.05 65.9 53.86 65.88 53.19 66.18L48.22 68.38C47.54 68.68 47.62 69.2 48.42 69.53L52.44 71.19C53.23 71.52 53.88 71.54 53.88 71.54Z" />
							</g>
							<g id="&lt;Group&gt;">
								<path id="&lt;Path&gt;" class="shp73" d="M88.85 74C88.24 74.3 88.36 74.81 89.13 75.12L93.92 77.11C94.68 77.42 95.8 77.43 96.4 77.13L100.75 74.91C101.34 74.61 101.2 74.11 100.45 73.79L95.73 71.84C94.98 71.52 93.87 71.51 93.27 71.8L88.85 74Z" />
							</g>
							<g id="&lt;Group&gt;">
								<path id="&lt;Path&gt;" class="shp73" d="M127.76 54.73C127.25 54.98 127.4 55.43 128.1 55.72L132.45 57.55C133.15 57.84 134.13 57.87 134.63 57.61L138.25 55.76C138.75 55.51 138.59 55.07 137.9 54.78L133.61 52.98C132.92 52.69 131.95 52.66 131.45 52.9L127.76 54.73Z" />
							</g>
							<g id="&lt;Group&gt;">
								<path id="&lt;Path&gt;" class="shp73" d="M134.75 51.27C134.26 51.51 134.41 51.95 135.09 52.24L139.38 54.04C140.06 54.32 141.02 54.35 141.5 54.11L145.01 52.31C145.49 52.07 145.33 51.64 144.65 51.36L140.43 49.58C139.76 49.29 138.81 49.26 138.33 49.5L134.75 51.27Z" />
							</g>
							<g id="&lt;Group&gt;">
								<path id="&lt;Path&gt;" class="shp73" d="M154.23 49.43C153.74 49.68 153.92 50.13 154.63 50.43L155.85 50.95C156.38 51.17 157.11 51.2 157.47 51.01L160.18 49.59C160.63 49.35 160.46 48.93 159.8 48.65L158.16 47.96C157.83 47.82 157.39 47.8 157.17 47.92L154.23 49.43Z" />
							</g>
							<g id="&lt;Group&gt;">
								<path id="&lt;Path&gt;" class="shp73" d="M72.08 63.23C72.46 63.24 72.85 63.15 73.27 62.96L77.81 60.9C78.42 60.62 78.31 60.13 77.56 59.82L73.74 58.23C72.99 57.92 71.87 57.89 71.25 58.17L66.64 60.21C66 60.49 66.11 60.98 66.87 61.3L70.74 62.91C71.5 63.22 72.08 63.23 72.08 63.23Z" />
							</g>
							<g id="&lt;Group&gt;">
								<path id="&lt;Path&gt;" class="shp73" d="M97.21 69.85C96.62 70.15 96.75 70.64 97.5 70.95L102.2 72.9C102.95 73.22 104.04 73.23 104.62 72.93L108.76 70.82C109.33 70.53 109.19 70.04 108.45 69.73L103.82 67.81C103.08 67.5 102.01 67.48 101.43 67.76L97.21 69.85Z" />
							</g>
							<g id="&lt;Group&gt;">
								<path id="&lt;Path&gt;" class="shp73" d="M105.23 65.88C104.66 66.17 104.8 66.65 105.53 66.95L110.14 68.87C110.88 69.18 111.94 69.2 112.49 68.91L116.53 66.85C117.08 66.57 116.93 66.1 116.21 65.8L111.67 63.9C110.94 63.6 109.89 63.58 109.34 63.85L105.23 65.88Z" />
							</g>
							<g id="&lt;Group&gt;">
								<path id="&lt;Path&gt;" class="shp73" d="M117.7 59.96C117.7 59.96 117.22 59.95 116.68 60.21L113 62.04C112.45 62.31 112.59 62.78 113.32 63.08L117.64 64.88C118.36 65.18 118.89 65.19 118.92 65.2C118.96 65.22 119.57 65.3 120.11 65.03L123.74 63.17C124.27 62.9 124.12 62.44 123.41 62.14L118.99 60.29C118.28 59.99 117.71 59.97 117.7 59.96Z" />
							</g>
							<g id="&lt;Group&gt;">
								<path id="&lt;Path&gt;" class="shp73" d="M125.38 56.22C125.36 56.21 124.87 56.16 124.35 56.42L120.22 58.46C119.69 58.72 119.84 59.18 120.55 59.48L124.99 61.34C125.7 61.63 126.7 61.66 127.23 61.39L131.27 59.33C131.78 59.07 131.63 58.61 130.93 58.32L126.66 56.53C125.97 56.24 125.39 56.23 125.38 56.22Z" />
							</g>
							<g id="&lt;Group&gt;">
								<path id="&lt;Path&gt;" class="shp73" d="M78.32 62.91C78.3 62.9 77.7 62.92 77.08 63.2L72.49 65.31C71.86 65.6 71.97 66.1 72.73 66.42L76.27 67.88C77.03 68.2 77.2 68.2 77.6 68.23C77.99 68.25 78.26 68.26 78.88 67.97L83.4 65.84C84.01 65.55 83.89 65.06 83.14 64.75L79.67 63.31C78.92 62.99 78.33 62.92 78.32 62.91Z" />
							</g>
							<g id="&lt;Group&gt;">
								<path id="&lt;Path&gt;" class="shp73" d="M105.35 63.5C105.78 63.52 105.96 63.53 106.52 63.25L110.63 61.24C111.18 60.97 111.04 60.5 110.32 60.2L105.86 58.34C105.14 58.03 104.09 58.01 103.53 58.27L99.4 60.24C98.82 60.51 98.95 60.99 99.68 61.29L103.93 63.06C104.66 63.36 104.91 63.48 105.35 63.5Z" />
							</g>
							<g id="&lt;Group&gt;">
								<path id="&lt;Path&gt;" class="shp73" d="M117.89 57.67C118.43 57.41 118.28 56.96 117.58 56.66L113.19 54.82C112.48 54.53 111.46 54.5 110.92 54.75L107.22 56.52C106.67 56.78 106.8 57.24 107.52 57.54L111.96 59.4C112.68 59.7 113.71 59.72 114.25 59.46L117.89 57.67Z" />
							</g>
							<g id="&lt;Group&gt;">
								<path id="&lt;Path&gt;" class="shp73" d="M132.51 50.5C133.01 50.26 132.86 49.82 132.18 49.54L127.95 47.76C127.27 47.47 126.3 47.43 125.79 47.67L122.08 49.44C121.56 49.69 121.71 50.13 122.4 50.42L126.69 52.22C127.38 52.51 128.36 52.54 128.86 52.29L132.51 50.5Z" />
							</g>
							<g id="&lt;Group&gt;">
								<path id="&lt;Path&gt;" class="shp73" d="M102.81 65.07C103.38 64.79 103.24 64.32 102.51 64.01L97.96 62.11C97.23 61.81 96.15 61.78 95.57 62.06L91.33 64.08C90.73 64.36 90.86 64.85 91.6 65.16L96.22 67.08C96.96 67.39 98.05 67.41 98.63 67.12L102.81 65.07Z" />
							</g>
							<g id="&lt;Group&gt;">
								<path id="&lt;Path&gt;" class="shp73" d="M125.46 53.93C125.98 53.69 125.85 53.26 125.15 52.96L120.85 51.16C120.16 50.87 119.16 50.83 118.64 51.08L114.49 53.06C113.95 53.31 114.09 53.76 114.8 54.06L118.91 55.78C119.62 56.07 120.63 56.12 121.17 55.87L125.46 53.93Z" />
							</g>
							<g id="&lt;Group&gt;">
								<path id="&lt;Path&gt;" class="shp73" d="M94.74 69.03C95.33 68.74 95.2 68.25 94.45 67.94L90.34 66.23C89.59 65.92 89.27 65.75 88.84 65.7C88.41 65.65 88.09 65.62 87.49 65.91L82.91 68.09C82.3 68.38 82.41 68.88 83.18 69.19L87.88 71.15C88.64 71.46 89.76 71.48 90.36 71.18L94.74 69.03Z" />
							</g>
							<g id="&lt;Group&gt;">
								<path id="&lt;Path&gt;" class="shp73" d="M63.52 69.44C62.86 69.74 62.96 70.25 63.74 70.57L67.45 72.11C68.23 72.43 69.4 72.44 70.05 72.14L74.73 69.93C75.36 69.63 75.25 69.13 74.48 68.81L70.83 67.3C70.06 66.98 68.91 66.96 68.27 67.25L63.52 69.44Z" />
							</g>
							<g id="&lt;Group&gt;">
								<path id="&lt;Path&gt;" class="shp73" d="M80.38 75.67C80.43 75.71 81.09 75.73 81.72 75.42L86.32 73.16C86.94 72.86 86.81 72.36 86.05 72.04L81.32 70.08C80.56 69.76 79.43 69.75 78.8 70.04L74.18 72.24C73.54 72.55 73.65 73.06 74.43 73.38L78.87 75.22C79.64 75.54 80.33 75.64 80.38 75.67Z" />
							</g>
							<g id="&lt;Group&gt;">
								<path id="&lt;Path&gt;" class="shp73" d="M119.45 41.92C119.46 41.92 119.88 41.73 120.39 41.5L124.06 39.83C124.56 39.6 124.42 39.19 123.75 38.9L120.33 37.46C119.66 37.18 118.69 37.13 118.19 37.35L114.46 39.01C113.95 39.23 114.08 39.66 114.76 39.94L118.2 41.39C118.88 41.68 119.45 41.92 119.45 41.92Z" />
							</g>
							<g id="&lt;Group&gt;">
								<path id="&lt;Path&gt;" class="shp73" d="M94.29 53.39C94.86 53.13 94.74 52.67 94.02 52.37L90.34 50.83C89.62 50.53 88.56 50.49 87.98 50.75L83.7 52.65C83.11 52.91 83.22 53.37 83.95 53.68L87.68 55.24C88.42 55.54 89.49 55.57 90.08 55.31L94.29 53.39Z" />
							</g>
							<g id="&lt;Group&gt;">
								<path id="&lt;Path&gt;" class="shp73" d="M140.75 45.35C141.42 45.63 142.35 45.67 142.83 45.44L146.79 43.5C147.25 43.27 147.09 42.86 146.44 42.58L142.36 40.86C141.71 40.58 140.78 40.54 140.31 40.76L136.28 42.68C135.8 42.91 135.95 43.33 136.62 43.61L140.75 45.35Z" />
							</g>
							<g id="&lt;Group&gt;">
								<path id="&lt;Path&gt;" class="shp73" d="M109.7 46.37C110.23 46.13 110.1 45.69 109.4 45.4L106.09 44.01C105.4 43.72 104.84 43.63 104.81 43.62C104.77 43.6 104.18 43.56 103.64 43.8L99.32 45.72C98.77 45.97 98.89 46.41 99.6 46.71L103.19 48.21C103.9 48.51 104.92 48.55 105.47 48.3L109.7 46.37Z" />
							</g>
							<g id="&lt;Group&gt;">
								<path id="&lt;Path&gt;" class="shp73" d="M101.83 49.96C102.38 49.7 102.25 49.26 101.54 48.96L98.11 47.52C97.4 47.22 96.89 47.16 96.86 47.15C96.83 47.14 96.2 47.1 95.64 47.35L91.79 49.06C91.22 49.31 91.34 49.76 92.06 50.07L95.72 51.6C96.44 51.9 97.49 51.93 98.05 51.68L101.83 49.96Z" />
							</g>
							<g id="&lt;Group&gt;">
								<path id="&lt;Path&gt;" class="shp73" d="M80.68 59.31C80.69 59.32 81.24 59.33 81.84 59.06L86.18 57.08C86.77 56.81 86.65 56.34 85.92 56.04L82.17 54.48C81.44 54.17 80.34 54.13 79.74 54.4L75.35 56.35C74.73 56.62 74.84 57.1 75.59 57.41L79.32 58.96C80.06 59.27 80.67 59.3 80.68 59.31Z" />
							</g>
							<g id="&lt;Group&gt;">
								<path id="&lt;Path&gt;" class="shp73" d="M117 43.05C117.51 42.81 117.37 42.39 116.69 42.1L113.21 40.64C112.53 40.35 111.54 40.3 111.02 40.53L107.17 42.24C106.64 42.47 106.77 42.91 107.47 43.2L110.99 44.68C111.69 44.97 112.68 45.01 113.21 44.77L117 43.05Z" />
							</g>
							<g id="&lt;Group&gt;" style="opacity: 0.702">
								<path id="&lt;Path&gt;" class="shp73" d="M136.11 40.98C136.59 40.75 136.43 40.34 135.77 40.06L132.63 38.73C131.96 38.45 131.02 38.4 130.54 38.63L126.96 40.27C126.47 40.5 126.61 40.92 127.29 41.2L130.47 42.54C131.15 42.83 132.09 42.87 132.58 42.64L136.11 40.98Z" />
							</g>
						</g>
					</g>
				</g>
			</g>
		</g>
	</g>
</svg>