<?xml version="1.0" standalone="no"?>
<!DOCTYPE svg PUBLIC "-//W3C//DTD SVG 20010904//EN"
 "http://www.w3.org/TR/2001/REC-SVG-20010904/DTD/svg10.dtd">
<svg version="1.0" xmlns="http://www.w3.org/2000/svg"
 width="1773.000000pt" height="1182.000000pt" viewBox="0 0 1773.000000 1182.000000"
 preserveAspectRatio="xMidYMid meet">

<g transform="translate(0.000000,1182.000000) scale(0.100000,-0.100000)"
fill="#000000" stroke="none">
<path d="M10535 6657 c8 -13 33 -33 55 -46 72 -40 173 -23 221 38 l21 26 -27
3 c-17 2 -35 -4 -50 -18 -37 -35 -102 -38 -148 -6 -21 14 -49 26 -63 26 -23 0
-24 -1 -9 -23z"/>
<path d="M4350 6126 l0 -356 35 0 35 0 2 159 3 160 213 -160 213 -160 53 3 54
3 -225 170 c-123 93 -226 172 -228 175 -2 4 99 85 225 180 127 95 230 174 230
176 0 2 -24 4 -53 4 -53 0 -53 0 -264 -160 -117 -88 -214 -160 -217 -160 -3 0
-7 71 -8 158 l-3 157 -32 3 -33 3 0 -355z"/>
<path d="M5090 6474 c0 -3 13 -24 29 -47 15 -23 87 -132 158 -243 l130 -201
-58 -99 c-32 -54 -59 -102 -59 -106 0 -5 17 -8 38 -8 l37 1 170 295 c94 163
185 323 204 356 l34 59 -42 -3 -41 -3 -118 -204 c-65 -112 -122 -204 -127
-204 -5 0 -70 93 -143 206 l-134 207 -39 0 c-21 0 -39 -3 -39 -6z"/>
<path d="M5900 6473 c0 -3 58 -84 129 -178 l129 -172 -129 -171 c-71 -94 -129
-174 -129 -177 0 -3 18 -5 40 -5 40 0 40 1 147 145 60 79 110 144 113 145 3 0
55 -65 115 -145 l110 -145 43 0 42 0 -118 158 c-65 86 -125 167 -132 178 -12
20 -4 34 111 185 69 90 129 170 133 177 5 9 -4 12 -36 12 l-43 -1 -108 -144
c-59 -80 -111 -145 -115 -145 -4 0 -56 65 -116 145 -107 143 -110 145 -148
145 -21 0 -38 -3 -38 -7z"/>
<path d="M6630 6125 l0 -355 35 0 35 0 0 160 0 160 250 0 250 0 0 -160 0 -160
35 0 35 0 0 355 0 355 -35 0 -35 0 0 -160 0 -160 -250 0 -250 0 0 160 0 160
-35 0 -35 0 0 -355z"/>
<path d="M7580 6471 c-138 -28 -219 -163 -180 -302 13 -45 79 -122 120 -139
16 -7 30 -15 30 -18 0 -3 -29 -56 -65 -117 -36 -62 -65 -115 -65 -119 0 -3 17
-6 38 -6 37 1 37 1 105 121 l69 119 161 -2 162 -3 3 -117 3 -118 29 0 30 0 0
355 0 355 -202 -1 c-112 -1 -219 -4 -238 -8z m375 -231 l0 -165 -140 -3 c-227
-5 -279 9 -332 87 -43 63 -21 174 43 216 46 30 74 34 254 32 l175 -2 0 -165z"/>
<path d="M8960 6470 c-126 -21 -232 -111 -276 -232 -41 -113 -8 -263 78 -354
72 -76 149 -109 258 -109 71 0 94 4 140 26 74 35 130 86 163 148 l28 51 -26
10 c-38 14 -44 13 -55 -14 -15 -40 -75 -100 -125 -125 -186 -93 -407 41 -408
248 -1 257 305 383 483 199 21 -21 43 -51 49 -67 12 -27 14 -28 46 -18 31 9
32 11 23 39 -15 43 -105 136 -157 163 -39 19 -150 48 -170 44 -3 -1 -26 -5
-51 -9z"/>
<path d="M10350 6126 l0 -356 33 0 c32 0 50 18 293 300 l259 301 3 -301 2
-300 35 0 35 0 -2 353 -3 352 -35 0 c-33 0 -47 -14 -290 -294 l-255 -295 -5
295 -5 294 -32 3 -33 3 0 -355z"/>
<path d="M11130 6445 l0 -35 155 0 155 0 0 -320 0 -320 35 0 35 0 2 318 3 317
158 3 157 3 0 34 0 35 -350 0 -350 0 0 -35z"/>
<path d="M12192 6468 c-109 -17 -208 -91 -259 -196 -24 -50 -28 -69 -28 -147
0 -82 3 -97 33 -157 38 -77 91 -128 172 -167 46 -21 69 -26 140 -25 72 0 94 4
147 28 122 56 195 165 201 301 6 132 -47 239 -151 308 -82 54 -158 70 -255 55z
m185 -94 c97 -47 154 -139 154 -249 0 -253 -298 -379 -477 -201 -138 138 -101
363 74 455 68 36 168 34 249 -5z"/>
<path d="M12727 6474 c-4 -4 -7 -164 -7 -356 l0 -348 238 0 c130 0 253 4 272
10 19 5 52 24 74 42 99 82 102 231 6 325 l-31 30 25 38 c53 77 22 200 -61 241
-33 17 -67 19 -273 22 -130 2 -239 0 -243 -4z m471 -75 c78 -27 87 -141 14
-180 -18 -11 -75 -14 -221 -14 l-196 0 -3 89 c-2 49 -1 95 2 103 7 17 356 19
404 2z m40 -282 c52 -28 74 -72 69 -139 -2 -44 -9 -64 -28 -84 -48 -51 -63
-54 -284 -54 l-205 0 0 143 c0 79 3 147 8 151 4 4 97 6 207 4 169 -3 205 -6
233 -21z"/>
<path d="M9738 6338 c-41 -73 -132 -231 -202 -351 l-126 -218 42 3 42 3 160
278 c88 152 163 277 166 277 3 -1 77 -127 165 -280 l160 -280 38 0 c20 0 37 2
37 5 0 9 -381 668 -394 683 -9 9 -29 -18 -88 -120z"/>
<path d="M9792 5877 c-45 -20 -36 -90 12 -103 50 -12 85 32 62 77 -14 28 -45
39 -74 26z"/>
<path d="M6920 5305 l0 -115 64 0 c58 0 67 3 86 27 23 29 21 69 -4 88 -12 9
-12 14 0 30 19 26 18 41 -6 65 -16 16 -33 20 -80 20 l-60 0 0 -115z m124 70
c11 -30 -5 -45 -50 -45 -42 0 -44 1 -44 30 0 29 2 30 44 30 30 0 46 -5 50 -15z
m8 -101 c11 -23 10 -29 -11 -45 -13 -11 -38 -19 -57 -19 -34 0 -34 1 -34 45
l0 45 45 0 c39 0 47 -4 57 -26z"/>
<path d="M7392 5408 c-8 -8 -12 -46 -12 -103 0 -57 4 -95 12 -103 15 -15 138
-16 138 -2 0 6 -21 10 -46 10 -64 0 -84 13 -84 55 l0 35 60 0 c77 0 79 18 3
22 -57 3 -58 3 -58 33 0 29 1 30 59 35 35 3 61 10 64 18 5 16 -119 17 -136 0z"/>
<path d="M7817 5413 c-4 -3 -7 -55 -7 -115 l0 -108 63 0 c74 0 107 22 107 70
0 46 -31 70 -90 70 -49 0 -50 1 -50 30 0 28 1 29 57 32 34 2 58 8 61 16 3 9
-15 12 -65 12 -39 0 -73 -3 -76 -7z m117 -119 c37 -36 -3 -89 -61 -82 -26 3
-28 7 -31 51 l-3 47 40 0 c23 0 46 -7 55 -16z"/>
<path d="M8501 5396 c-47 -50 -48 -149 -2 -190 19 -18 99 -25 121 -11 25 15 8
26 -33 20 -34 -5 -48 -3 -67 13 -21 17 -25 29 -25 72 0 45 4 55 29 76 22 19
35 24 57 19 16 -4 34 -3 40 1 18 11 -11 24 -57 24 -30 0 -46 -6 -63 -24z"/>
<path d="M8892 5408 c3 -7 19 -14 36 -16 l32 -3 0 -100 c0 -81 3 -99 15 -99
12 0 15 18 15 100 l0 100 35 0 c24 0 35 5 35 15 0 12 -16 15 -86 15 -64 0 -85
-3 -82 -12z"/>
<path d="M9320 5416 c0 -9 63 -152 71 -162 15 -18 -1 -44 -27 -44 -15 0 -24
-6 -24 -15 0 -19 44 -20 63 -1 17 18 92 214 84 222 -12 12 -26 -8 -48 -71 -12
-36 -26 -65 -29 -65 -4 0 -19 32 -34 70 -16 41 -34 70 -42 70 -8 0 -14 -2 -14
-4z"/>
<path d="M9795 5408 c-2 -7 -9 -46 -15 -87 -11 -77 -24 -111 -41 -111 -6 0 -9
-16 -7 -37 4 -46 28 -58 28 -14 l0 31 85 0 85 0 0 -30 c0 -43 17 -37 22 8 3
24 0 40 -9 45 -9 6 -13 35 -13 107 l0 100 -65 0 c-44 0 -67 -4 -70 -12z m105
-108 l0 -90 -56 0 c-53 0 -56 1 -51 23 4 12 9 42 12 67 13 91 12 90 55 90 l40
0 0 -90z"/>
<path d="M10232 5308 c3 -105 4 -113 23 -113 14 0 33 24 70 87 27 48 53 87 58
88 4 0 7 -40 7 -90 0 -53 4 -90 10 -90 6 0 10 45 10 116 0 144 -11 147 -84 22
-28 -48 -54 -87 -58 -87 -5 -1 -8 40 -8 89 0 74 -3 90 -15 90 -13 0 -15 -17
-13 -112z"/>
<path d="M10732 5404 c-25 -18 -31 -74 -8 -93 11 -10 11 -17 -5 -48 -23 -44
-24 -73 -4 -73 8 0 17 14 21 35 9 47 28 65 70 65 l34 0 0 -50 c0 -38 4 -50 15
-50 12 0 15 19 15 115 l0 115 -58 0 c-36 0 -66 -6 -80 -16z m108 -54 c0 -38
-2 -40 -31 -40 -43 0 -69 17 -69 44 0 32 7 36 57 36 l43 0 0 -40z"/>
</g>
</svg>
